<?xml version="1.0" encoding="UTF-8"?>
<!DOCTYPE svg PUBLIC "-//W3C//DTD SVG 1.1//EN" "http://www.w3.org/Graphics/SVG/1.1/DTD/svg11.dtd">
<svg xmlns="http://www.w3.org/2000/svg" version="1.1" width="214px" height="236px" style="shape-rendering:geometricPrecision; text-rendering:geometricPrecision; image-rendering:optimizeQuality; fill-rule:evenodd; clip-rule:evenodd" xmlns:xlink="http://www.w3.org/1999/xlink">
<g><path style="opacity:1" fill="#fefefe" d="M -0.5,-0.5 C 21.5,-0.5 43.5,-0.5 65.5,-0.5C 53.9701,1.64647 42.3034,3.81313 30.5,6C 26.3344,7.66724 23.3344,10.5006 21.5,14.5C 22.7192,21.6729 25.3858,28.1729 29.5,34C 31.1992,34.9581 33.0326,35.4581 35,35.5C 58.676,29.9595 82.5093,29.1261 106.5,33C 113.504,34.6124 120.171,37.1124 126.5,40.5C 127.5,60.4889 127.833,80.4889 127.5,100.5C 106.483,100.882 85.483,101.715 64.5,103C 44.5043,104.877 27.3376,112.71 13,126.5C 6.28034,135.932 1.78034,146.266 -0.5,157.5C -0.5,104.833 -0.5,52.1667 -0.5,-0.5 Z"/></g>
<g><path style="opacity:1" fill="#fdfdfe" d="M 95.5,-0.5 C 134.833,-0.5 174.167,-0.5 213.5,-0.5C 213.5,70.8333 213.5,142.167 213.5,213.5C 211.824,208.681 210.324,203.681 209,198.5C 206.929,194.047 203.429,192.047 198.5,192.5C 190.247,194.323 181.913,195.156 173.5,195C 170.572,193.74 168.739,191.573 168,188.5C 167.013,132.788 166.013,77.1208 165,21.5C 157.965,15.2563 149.798,11.0896 140.5,9C 125.566,4.84802 110.566,1.68136 95.5,-0.5 Z"/></g>
<g><path style="opacity:1" fill="#0478c0" d="M 65.5,-0.5 C 75.5,-0.5 85.5,-0.5 95.5,-0.5C 110.566,1.68136 125.566,4.84802 140.5,9C 149.798,11.0896 157.965,15.2563 165,21.5C 166.013,77.1208 167.013,132.788 168,188.5C 168.739,191.573 170.572,193.74 173.5,195C 181.913,195.156 190.247,194.323 198.5,192.5C 203.429,192.047 206.929,194.047 209,198.5C 210.324,203.681 211.824,208.681 213.5,213.5C 213.5,215.833 213.5,218.167 213.5,220.5C 211.29,224.469 207.957,227.302 203.5,229C 195.84,231.661 188.173,233.828 180.5,235.5C 174.833,235.5 169.167,235.5 163.5,235.5C 152.464,233.398 143.297,228.065 136,219.5C 134.753,216.671 133.253,214.005 131.5,211.5C 114.861,225.326 95.8608,233.326 74.5,235.5C 69.1667,235.5 63.8333,235.5 58.5,235.5C 23.8545,232.519 4.1878,213.853 -0.5,179.5C -0.5,172.167 -0.5,164.833 -0.5,157.5C 1.78034,146.266 6.28034,135.932 13,126.5C 27.3376,112.71 44.5043,104.877 64.5,103C 85.483,101.715 106.483,100.882 127.5,100.5C 127.833,80.4889 127.5,60.4889 126.5,40.5C 120.171,37.1124 113.504,34.6124 106.5,33C 82.5093,29.1261 58.676,29.9595 35,35.5C 33.0326,35.4581 31.1992,34.9581 29.5,34C 25.3858,28.1729 22.7192,21.6729 21.5,14.5C 23.3344,10.5006 26.3344,7.66724 30.5,6C 42.3034,3.81313 53.9701,1.64647 65.5,-0.5 Z"/></g>
<g><path style="opacity:1" fill="#fdfdfe" d="M 103.5,128.5 C 112.167,128.5 120.833,128.5 129.5,128.5C 129.833,147.845 129.5,167.178 128.5,186.5C 106.459,201.178 82.4587,206.011 56.5,201C 46.5036,196.856 41.0036,189.356 40,178.5C 38.927,168.689 39.5937,159.022 42,149.5C 47.7567,137.771 57.2567,131.604 70.5,131C 81.6479,130.082 92.6479,129.249 103.5,128.5 Z"/></g>
<g><path style="opacity:1" fill="#fbfcfd" d="M -0.5,179.5 C 4.1878,213.853 23.8545,232.519 58.5,235.5C 38.8333,235.5 19.1667,235.5 -0.5,235.5C -0.5,216.833 -0.5,198.167 -0.5,179.5 Z"/></g>
<g><path style="opacity:1" fill="#fbfcfd" d="M 163.5,235.5 C 133.833,235.5 104.167,235.5 74.5,235.5C 95.8608,233.326 114.861,225.326 131.5,211.5C 133.253,214.005 134.753,216.671 136,219.5C 143.297,228.065 152.464,233.398 163.5,235.5 Z"/></g>
<g><path style="opacity:1" fill="#f8fafc" d="M 213.5,220.5 C 213.5,225.5 213.5,230.5 213.5,235.5C 202.5,235.5 191.5,235.5 180.5,235.5C 188.173,233.828 195.84,231.661 203.5,229C 207.957,227.302 211.29,224.469 213.5,220.5 Z"/></g>
</svg>
