<?xml version="1.0" encoding="UTF-8"?>
<svg version="1.1" xmlns="http://www.w3.org/2000/svg" width="1600" height="1600">
<path d="M0 0 C528 0 1056 0 1600 0 C1600 528 1600 1056 1600 1600 C1072 1600 544 1600 0 1600 C0 1072 0 544 0 0 Z " fill="#182B56" transform="translate(0,0)"/>
<path d="M0 0 C10.08866252 7.64080072 15.18758593 17.8075605 20.62182617 28.87768555 C21.80128699 31.2351647 22.98650723 33.58968639 24.17224121 35.9440155 C24.95545573 37.49963857 25.73696622 39.0561208 26.51672363 40.61347961 C30.08707628 47.73211199 33.86784386 54.72448231 37.75390625 61.67553711 C40.88937553 67.31950125 43.80099928 73.0567613 46.6733551 78.83740234 C50.33367068 86.20097194 54.09791257 93.50935879 57.87182617 100.81518555 C58.61025074 102.24630594 59.34861208 103.67745895 60.08691406 105.10864258 C61.96263895 108.74395828 63.83971699 112.37857347 65.71716309 116.01300049 C66.7753514 118.06190238 67.83298411 120.11108989 68.89038086 122.16040039 C81.60392264 146.99346463 81.60392264 146.99346463 94.80932617 171.56518555 C97.50064962 176.45166667 99.96296754 181.4403631 102.43432617 186.44018555 C106.5738043 194.80699688 110.97340512 203.00534096 115.47875977 211.17993164 C118.80044501 217.22511957 121.97330965 223.32015525 125.01513672 229.51025391 C127.16434656 233.8751901 129.42483112 238.16500963 131.74682617 242.44018555 C134.75679951 247.99972269 137.51251066 253.64853973 140.18432617 259.37768555 C143.50266843 266.48496616 147.02781601 273.44193942 150.72241211 280.36010742 C154.59009251 287.63453764 158.26812678 295.00041537 161.93432617 302.37768555 C166.13775113 310.83272547 170.39861656 319.23773773 174.89770508 327.5390625 C176.79294502 331.07000432 178.59661848 334.64449393 180.37963867 338.2331543 C180.71958862 338.91510361 181.05953857 339.59705292 181.40979004 340.29966736 C182.5439258 342.57519798 183.67663113 344.85143747 184.80932617 347.12768555 C187.8527741 353.23779531 190.89829564 359.34686918 193.94555664 365.45507812 C194.85545135 367.27991709 195.76463006 369.10511324 196.6730957 370.93066406 C201.7053717 381.04132566 206.80032875 391.10243009 212.15600586 401.04589844 C214.06601918 404.606161 215.89241633 408.19420645 217.68432617 411.81518555 C218.34307324 413.14206164 219.00193335 414.46888162 219.66088867 415.7956543 C220.0028125 416.48578613 220.34473633 417.17591797 220.69702148 417.88696289 C222.80770345 422.13890298 224.93499659 426.38255257 227.05932617 430.62768555 C228.26736927 433.04353571 229.47535695 435.4593743 230.6784668 437.87768555 C231.41463121 439.34238573 232.16277033 440.80114831 232.92456055 442.25268555 C236.67281398 449.45820046 238.15989543 455.91453095 238.05932617 464.00268555 C238.0511084 464.80206543 238.04289062 465.60144531 238.03442383 466.42504883 C237.71731275 483.11600313 230.10970112 496.16721809 218.30932617 507.75268555 C206.34654273 518.22701206 192.5814011 520.93013061 177.09155273 520.3112793 C172.62036234 519.95159432 168.48609039 518.64689288 164.21557617 517.3425293 C157.2493066 515.29669193 150.03962538 514.18659158 142.90698242 512.87890625 C137.43440639 511.86511647 132.16103048 510.66560289 126.80932617 509.12768555 C123.34323355 508.42445239 119.85964147 507.83730361 116.37182617 507.25268555 C114.85455933 506.99442993 114.85455933 506.99442993 113.30664062 506.73095703 C111.18511886 506.37068007 109.06328722 506.01222346 106.94116211 505.65551758 C104.01320836 505.16204736 101.08690895 504.65981658 98.16088867 504.1550293 C80.75549623 501.17552361 63.28953229 498.62238937 45.80932617 496.12768555 C44.10655518 495.88139404 44.10655518 495.88139404 42.36938477 495.63012695 C30.6592776 493.94685592 19.08131858 492.74827072 7.25463867 492.33862305 C4.35496499 492.22979673 1.51783438 491.9924299 -1.35986328 491.625 C-6.22603331 491.07131759 -11.03501319 490.96671229 -15.92895508 490.9597168 C-16.83907349 490.95548203 -17.74919189 490.95124725 -18.68688965 490.94688416 C-21.62569849 490.93703254 -24.56435142 490.93696063 -27.50317383 490.94018555 C-29.01589371 490.94109192 -29.01589371 490.94109192 -30.55917358 490.9420166 C-70.77086441 491.00741119 -110.46453496 496.18910434 -149.99487305 503.36987305 C-153.34248597 503.97740081 -156.69334722 504.56451731 -160.04563904 505.14573669 C-169.60289725 506.8088175 -179.1185757 508.65007809 -188.62817383 510.56518555 C-189.3883783 510.7176474 -190.14858276 510.87010925 -190.93182373 511.02719116 C-208.70613489 514.59273974 -208.70613489 514.59273974 -226.37036133 518.6628418 C-239.84558139 521.87122753 -253.1791822 521.15710158 -265.41723633 514.3269043 C-279.99939766 505.00951833 -288.99264369 492.94038499 -293.73486328 476.20751953 C-296.0454014 465.66468385 -294.97365004 453.70596522 -290.19067383 444.12768555 C-289.47689963 442.64732889 -288.76338297 441.16684805 -288.05004883 439.6862793 C-281.70798412 426.68735006 -274.90877398 413.90752005 -268.06567383 401.16674805 C-263.26946384 392.23483537 -258.69184941 383.2114884 -254.19067383 374.12768555 C-248.5441964 362.74298908 -242.84995138 351.39583227 -236.89038086 340.17138672 C-233.52501625 333.81392154 -230.28919352 327.39720278 -227.11621094 320.94165039 C-224.34899431 315.34409133 -221.45828451 309.81659488 -218.54223633 304.2956543 C-213.59054104 294.91906324 -208.73136305 285.49704327 -203.90356445 276.05615234 C-202.56056169 273.43018982 -201.21557723 270.80524928 -199.87036133 268.18041992 C-195.50480588 259.65515946 -191.17248682 251.11512891 -186.901474 242.54211426 C-184.20693924 237.14084073 -181.43709124 231.78264623 -178.62817383 226.44018555 C-173.88899024 217.39342396 -169.18773324 208.32779192 -164.50317383 199.25268555 C-160.11366052 190.74956806 -155.69299993 182.26515569 -151.18994141 173.8215332 C-148.43706167 168.64048915 -145.81169667 163.40156339 -143.20849609 158.14404297 C-140.46807987 152.62998103 -137.60734038 147.18507833 -134.68676758 141.7644043 C-132.18597669 137.09562739 -129.80188804 132.37217848 -127.44067383 127.6315918 C-123.60856404 119.93811732 -119.70348561 112.28419405 -115.76342773 104.64550781 C-114.68948054 102.56287149 -113.61772679 100.47911662 -112.54614258 98.39526367 C-109.05012315 91.60662196 -105.51486166 84.8430052 -101.90161133 78.1159668 C-99.21238809 73.10316988 -96.65509325 68.06304591 -94.31567383 62.87768555 C-90.74726286 55.14955245 -86.84808168 47.62723373 -82.83911133 40.11987305 C-80.97267625 36.62292475 -79.15142436 33.10628011 -77.35473633 29.57299805 C-76.87883057 28.64390625 -76.4029248 27.71481445 -75.91259766 26.75756836 C-75.0041731 24.98194689 -74.10243887 23.20287875 -73.20898438 21.41967773 C-66.80633842 8.97829742 -58.14258112 -0.21610178 -45.19067383 -5.87231445 C-29.80616719 -10.53970706 -13.32596064 -9.17653007 0 0 Z " fill="#172B56" transform="translate(827.190673828125,544.872314453125)"/>
<path d="M0 0 C0.33 0 0.66 0 1 0 C1 257.4 1 514.8 1 780 C-252.44 780 -505.88 780 -767 780 C-767 779.67 -767 779.34 -767 779 C-765.81374023 778.92483154 -764.62748047 778.84966309 -763.40527344 778.7722168 C-728.3729672 776.53676642 -693.94631715 773.11737361 -659.30758667 767.38049316 C-656.90763708 766.98477047 -654.50675808 766.59507063 -652.10571289 766.20605469 C-650.50665417 765.94477778 -648.90761385 765.68338819 -647.30859375 765.421875 C-646.58227753 765.30505371 -645.8559613 765.18823242 -645.1076355 765.06787109 C-639.23642025 764.10091359 -633.50832315 762.75399997 -627.7578125 761.22265625 C-622.79520817 759.92782587 -617.80433371 758.75869405 -612.81347656 757.57836914 C-587.03695159 751.45636057 -561.99495493 743.84706771 -536.92797852 735.32885742 C-533.45097237 734.1487874 -529.96476492 732.99814628 -526.4765625 731.8515625 C-521.64481563 730.24262576 -516.90523192 728.4782354 -512.1875 726.5625 C-511.37635742 726.23540039 -510.56521484 725.90830078 -509.72949219 725.57128906 C-502.07603602 722.46793152 -494.44934172 719.29876528 -486.82803345 716.11740112 C-485.45592462 715.54466311 -484.08351402 714.97264744 -482.71078491 714.40139771 C-473.1866255 710.4441046 -473.1866255 710.4441046 -463.89794922 705.97070312 C-461.66619539 704.82927616 -459.40541955 703.76139686 -457.13671875 702.6953125 C-421.70248133 686.00709857 -387.36214686 667.11480874 -355 645 C-353.57446552 644.03869645 -352.14866138 643.07779274 -350.72265625 642.1171875 C-329.35450918 627.67133499 -308.51729963 612.32726325 -288.9453125 595.51171875 C-286.14620921 593.12468504 -283.30314909 590.80639849 -280.4375 588.5 C-275.36248529 584.37192681 -270.55984584 579.99654409 -265.765625 575.55078125 C-263.55944053 573.51598117 -261.33367739 571.52353762 -259.0625 569.5625 C-249.22650335 560.98343599 -239.86301649 551.96481117 -230.625 542.75 C-230.15100769 542.27859589 -229.67701538 541.80719177 -229.18865967 541.32150269 C-224.16379615 536.31828399 -219.26139511 531.27340649 -214.64501953 525.89013672 C-211.74437844 522.55728375 -208.67014197 519.38774057 -205.625 516.1875 C-200.57976917 510.84501831 -195.73396551 505.43017738 -191.15234375 499.6796875 C-189.20467096 497.25481721 -187.20442053 494.88515174 -185.17700195 492.52685547 C-177.79897444 483.93301773 -170.88034789 474.99434414 -164 466 C-163.4829248 465.32565918 -162.96584961 464.65131836 -162.43310547 463.95654297 C-109.5414949 394.80648877 -68.51994678 316.51297344 -40.69970703 234.05957031 C-40.05329556 232.15687415 -39.38503164 230.26163958 -38.71484375 228.3671875 C-35.19455701 218.24777802 -32.48204735 207.93304928 -29.75 197.578125 C-28.70468439 193.61825036 -27.63312128 189.67000212 -26.5 185.734375 C-21.62782264 168.72298798 -18.01503673 151.43496754 -14.43811035 134.11395264 C-14.04230075 132.2041079 -13.64017928 130.29557393 -13.23730469 128.38720703 C-8.9870797 108.09983127 -6.77120062 87.58016512 -4.54882812 66.99121094 C-4.20562355 63.82463152 -3.8415305 60.66207836 -3.45117188 57.50097656 C-1.96743751 45.31412399 -1.36921158 33.13749879 -0.875 20.875 C-0.78832031 18.83721569 -0.70108376 16.79945499 -0.61328125 14.76171875 C-0.40245905 9.84139327 -0.19908587 4.92081375 0 0 Z " fill="#F6F6F6" transform="translate(1599,820)"/>
<path d="M0 0 C0.33 0 0.66 0 1 0 C1.03963867 1.07330566 1.07927734 2.14661133 1.12011719 3.25244141 C1.87753933 23.22295227 2.86991321 43.12332384 5 63 C5.08358765 63.79174622 5.16717529 64.58349243 5.2532959 65.39923096 C6.05670594 72.92240971 6.94600575 80.36856546 8.54882812 87.77148438 C9.35049049 91.73121061 9.7630509 95.74180022 10.25 99.75 C12.0813331 113.97269023 15.05005839 127.9752776 18 142 C18.24459961 143.17127441 18.48919922 144.34254883 18.74121094 145.54931641 C20.42588382 153.53103531 22.26900125 161.46177744 24.25 169.375 C24.55083496 170.57745361 24.85166992 171.77990723 25.16162109 173.01879883 C27.91736695 183.90077397 31.00595136 194.66770414 34.23291016 205.41796875 C34.90802876 207.690424 35.56108105 209.96694598 36.19921875 212.25 C41.82103356 232.2501664 48.82866912 251.99263248 56.82177734 271.16357422 C58.19471427 274.46875059 59.54358041 277.78343423 60.89453125 281.09765625 C69.90204476 303.08261863 79.67604907 324.7450041 91.15625 345.56640625 C92.77184799 348.57511521 94.29027779 351.60784904 95.796875 354.671875 C98.86421746 360.83374252 102.24617929 366.76546701 105.75 372.6875 C106.36053223 373.72551758 106.97106445 374.76353516 107.60009766 375.83300781 C108.82669451 377.91799716 110.05468951 380.00216471 111.28417969 382.08544922 C112.81642261 384.6881692 114.33735069 387.29691974 115.8515625 389.91015625 C120.24318394 397.47715542 124.7537568 404.89958229 129.70947266 412.11572266 C131.30838936 414.45027414 132.89406908 416.79364402 134.48046875 419.13671875 C147.94401072 438.99522891 161.85162323 458.38012023 177 477 C177.680625 477.84304688 178.36125 478.68609375 179.0625 479.5546875 C188.36522207 491.01697005 198.03807582 502.10898444 208 513 C209.3394433 514.47363613 210.67341812 515.95227533 212 517.4375 C212.53625 518.03433594 213.0725 518.63117187 213.625 519.24609375 C215 521 215 521 216 523.16015625 C216.92059051 525.35270094 216.92059051 525.35270094 220 526 C221.51000977 527.52905273 221.51000977 527.52905273 223.12890625 529.49609375 C227.17119054 534.25790252 231.51145709 538.65886743 235.9375 543.0625 C236.69740234 543.82626953 237.45730469 544.59003906 238.24023438 545.37695312 C242.43833477 549.56788341 246.73006347 553.57301916 251.22485352 557.44311523 C253.59592586 559.52265427 255.80047301 561.74102634 258 564 C262.17753954 568.2155748 266.46858581 572.17119184 271 576 C271.96679688 576.82113281 272.93359375 577.64226563 273.9296875 578.48828125 C276.146034 580.36901247 278.36679012 582.24439093 280.58984375 584.1171875 C282.78039728 585.9642831 284.95995623 587.82290664 287.12890625 589.6953125 C295.11492462 596.56773264 303.40007131 602.98512708 311.80615234 609.33398438 C313.98130497 610.98580293 316.14292967 612.65378564 318.30078125 614.328125 C327.64604673 621.56851428 337.18159919 628.41718035 347 635 C347.93126709 635.62769287 347.93126709 635.62769287 348.88134766 636.26806641 C362.52836523 645.46535961 376.28025759 654.48670524 390.44140625 662.875 C392.78074359 664.26296869 395.09942685 665.67741408 397.40234375 667.125 C403.32568918 670.84381853 409.25403929 674.210235 415.546875 677.2578125 C419.01992179 679.01005104 422.40486632 680.8769546 425.79711914 682.77905273 C475.1178221 710.39539122 528.86022097 730.20220877 583 746 C584.0410791 746.31026123 585.0821582 746.62052246 586.15478516 746.94018555 C595.24030809 749.60598608 604.38094484 751.78800509 613.625 753.8125 C614.3993338 753.98263611 615.1736676 754.15277222 615.97146606 754.32806396 C621.64354747 755.57140391 627.32060946 756.79053661 633 758 C633.744776 758.15938049 634.489552 758.31876099 635.25689697 758.48297119 C654.19853127 762.52793378 673.1742124 765.75538904 692.375 768.3125 C693.29683075 768.43578674 694.2186615 768.55907349 695.16842651 768.68609619 C717.20620721 771.60474303 739.16314332 773.29657788 761.375 774.125 C763.58725988 774.21172345 765.79949967 774.29896076 768.01171875 774.38671875 C773.34093019 774.59703743 778.67034937 774.80113751 784 775 C784 775.33 784 775.66 784 776 C525.28 776 266.56 776 0 776 C0 519.92 0 263.84 0 0 Z " fill="#F6F6F6" transform="translate(0,824)"/>
<path d="M0 0 C257.4 0 514.8 0 780 0 C780 257.4 780 514.8 780 780 C779.67 780 779.34 780 779 780 C778.97812622 778.62171021 778.97812622 778.62171021 778.95581055 777.21557617 C778.62457838 758.41025039 777.77846484 739.92168424 775.39404297 721.24511719 C774.99777102 717.98164339 774.66246644 714.71759218 774.34765625 711.4453125 C771.63463329 683.38963151 767.20148039 655.49685056 761 628 C760.57245635 626.06129937 760.14537954 624.12249574 759.71875 622.18359375 C759.29279119 620.26797877 758.86574786 618.35260455 758.4375 616.4375 C758.25179443 615.60541016 758.06608887 614.77332031 757.87475586 613.91601562 C745.33495123 558.93337939 726.00173044 504.54332549 701 454 C700.66162109 453.3095459 700.32324219 452.6190918 699.97460938 451.90771484 C696.08367586 443.97147521 692.04527911 436.12549351 687.84814453 428.34692383 C685.9114994 424.74914945 684.07813019 421.12160597 682.3125 417.4375 C677.46097566 407.64216688 671.62740669 398.36168402 666 389 C665.52369141 388.20223145 665.04738281 387.40446289 664.55664062 386.58251953 C657.61263937 374.95657804 650.23759599 363.65028125 642.64746094 352.43652344 C641.16653892 350.24630386 639.69535475 348.04992285 638.2265625 345.8515625 C631.17778557 335.37372192 623.53949739 325.36619056 615.82714844 315.37060547 C614.23521044 313.30517014 612.65033849 311.23470696 611.0703125 309.16015625 C600.02131669 294.66788776 588.27979487 280.74115087 576.03125 267.25 C573.48458126 264.42907463 570.99716948 261.55894432 568.5078125 258.6875 C567.25008218 257.27988472 565.91449909 255.94233245 564.5625 254.625 C563 253 563 253 563 251 C562.01 250.67 561.02 250.34 560 250 C558.59545898 248.57641602 558.59545898 248.57641602 557.05859375 246.69140625 C552.53386279 241.36127556 547.60694965 236.45677759 542.6574707 231.52709961 C541.06541034 229.94040054 539.4787701 228.34842258 537.89257812 226.75585938 C532.97181209 221.83187612 528.01367273 216.99996214 522.71899414 212.47387695 C520.13993835 210.26257745 517.67337655 207.94051578 515.1875 205.625 C510.56084776 201.35035974 505.79601124 197.30921946 500.88671875 193.359375 C498.26894768 191.21981651 495.71059954 189.03045695 493.16113281 186.81103516 C484.38291571 179.17920845 475.24955497 172.04923677 466 165 C465.17628906 164.37125977 464.35257813 163.74251953 463.50390625 163.09472656 C452.5414456 154.74619625 441.44019186 146.68004605 430 139 C428.74598222 138.15120642 427.49207556 137.30224864 426.23828125 136.453125 C399.31002814 118.28402934 371.141302 101.27456131 341.96484375 86.97070312 C340.06279254 86.03102176 338.17071415 85.07408027 336.28125 84.109375 C316.62952942 74.09652623 296.43685303 65.27574586 276 57 C275.21496094 56.6807959 274.42992187 56.3615918 273.62109375 56.03271484 C233.50908224 39.8057437 191.25310347 26.77561994 148.74951172 18.53662109 C145.99352009 17.99873532 143.2432689 17.43546134 140.49305725 16.86886597 C118.78469301 12.41163775 97.06913786 8.9004171 75.06799316 6.25067139 C73.13420456 6.01626758 71.20133887 5.77428474 69.26855469 5.53173828 C46.26316982 2.67454533 23.14832633 1.87957008 0 1 C0 0.67 0 0.34 0 0 Z " fill="#F6F6F6" transform="translate(820,0)"/>
<path d="M0 0 C255.42 0 510.84 0 774 0 C774 0.33 774 0.66 774 1 C773.02003052 1.01401855 773.02003052 1.01401855 772.02026367 1.02832031 C739.69935105 1.59268445 707.71975167 4.81633704 675.8125 9.9375 C674.79266022 10.10049591 673.77282043 10.26349182 672.72207642 10.431427 C630.86308006 17.18364272 588.45264515 26.32294857 548.62841797 41.06567383 C546.16200592 41.9424116 543.69295856 42.71167265 541.1796875 43.44140625 C534.7299933 45.33113365 528.43487774 47.62921855 522.125 49.9375 C521.48014648 50.17310638 520.83529297 50.40871277 520.17089844 50.65145874 C506.98991326 55.48463478 494.11406291 60.9148159 481.26611328 66.57226562 C477.74743298 68.11040603 474.21441493 69.61241917 470.6796875 71.11328125 C465.74504771 73.22446848 460.89694349 75.4202749 456.125 77.875 C454.76701935 78.56398398 453.40894374 79.25278081 452.05078125 79.94140625 C451.37740723 80.28445801 450.7040332 80.62750977 450.01025391 80.98095703 C448.06798312 81.96553783 446.11972702 82.93672649 444.16796875 83.90234375 C426.24730046 92.76910334 408.70249074 102.10506816 391.58105469 112.44189453 C389.17538236 113.89412692 386.7641039 115.33656365 384.3515625 116.77734375 C372.64706664 123.80595523 361.28482399 131.31894968 350 139 C349.04867188 139.64662598 348.09734375 140.29325195 347.1171875 140.95947266 C334.75632964 149.38751758 322.70550056 158.09123356 311.00195312 167.41113281 C309.08867176 168.9296249 307.16449034 170.43267618 305.234375 171.9296875 C297.3094498 178.0828674 289.60597597 184.45785787 282 191 C281.4004248 191.51320801 280.80084961 192.02641602 280.18310547 192.55517578 C272.41248904 199.20847513 264.76972261 205.97078536 257.29296875 212.953125 C254.65229581 215.41696716 251.95968362 217.81785728 249.26171875 220.21875 C243.87421087 225.05865853 238.73346962 230.11834519 233.625 235.25 C232.74972656 236.12140625 231.87445313 236.9928125 230.97265625 237.890625 C230.12832031 238.73625 229.28398437 239.581875 228.4140625 240.453125 C227.28411865 241.58476074 227.28411865 241.58476074 226.13134766 242.73925781 C223.94175391 245.06178222 221.97786238 247.49646851 220 250 C218.3563186 251.68933922 216.6857124 253.35259924 215 255 C207.51450689 262.32757131 200.70583806 269.87904775 194.48046875 278.3125 C193.74763672 279.1478125 193.74763672 279.1478125 193 280 C192.34 280 191.68 280 191 280 C190.6596875 280.80630859 190.6596875 280.80630859 190.3125 281.62890625 C188.59103553 284.7388138 186.32805315 287.2761828 184 289.9375 C178.8968744 295.87245683 174.08165545 301.97524492 169.35839844 308.21630859 C167.9097289 310.11853355 166.44468077 312.00728142 164.9765625 313.89453125 C149.26682463 334.14568469 134.8588846 355.39041677 121.37890625 377.18359375 C119.42979502 380.3282238 117.42898621 383.43558964 115.40844727 386.53466797 C111.84378893 392.00523531 108.51172463 397.53590708 105.453125 403.30859375 C103.91856245 406.1508346 102.28183072 408.91492066 100.625 411.6875 C96.74802132 418.291145 93.36990964 425.1049749 89.99853516 431.97509766 C89.05495202 433.88856428 88.09916957 435.79518463 87.13671875 437.69921875 C85.06972478 441.78896407 83.02881539 445.89118737 81 450 C80.55108398 450.9089502 80.10216797 451.81790039 79.63964844 452.75439453 C72.16830005 467.9444704 65.29167087 483.28515167 59 499 C58.61215332 499.96679688 58.22430664 500.93359375 57.82470703 501.9296875 C55.52108105 507.6940648 53.26202042 513.47414316 51.04394531 519.27197266 C50.38075894 521.00500458 49.7138664 522.7366263 49.04199219 524.46630859 C43.7770311 538.06792138 39.43413226 551.94825316 35.125 565.875 C34.83596802 566.80849274 34.54693604 567.74198547 34.24914551 568.70376587 C33.41529433 571.40304005 32.58552701 574.10352581 31.7578125 576.8046875 C31.5091745 577.61229019 31.2605365 578.41989288 31.00436401 579.25196838 C29.51626308 584.13651039 28.19242196 589.03552072 27 594 C26.8345871 594.67525726 26.66917419 595.35051453 26.49874878 596.04623413 C12.63898555 652.65806772 3.06607729 709.66470712 1 768 C0.67 768 0.34 768 0 768 C0 514.56 0 261.12 0 0 Z " fill="#F6F6F6" transform="translate(0,0)"/>
<path d="M0 0 C1.90785278 0.01522705 1.90785278 0.01522705 3.85424805 0.03076172 C27.2413996 0.41742529 48.80692537 8.39529682 67.5625 22.375 C68.29597656 22.90351563 69.02945312 23.43203125 69.78515625 23.9765625 C91.70461671 39.95523461 103.46658903 65.96625395 115.17236328 89.61328125 C118.71567409 96.74508486 122.3953636 103.80639873 126.0625 110.875 C134.06881112 126.30969977 134.06881112 126.30969977 137.5625 133.375 C143.08377524 144.52674561 148.86956286 155.54612443 154.60009766 166.59130859 C156.50004877 170.25367959 158.39677505 173.91771383 160.29296875 177.58203125 C171.37378891 199.00235389 171.37378891 199.00235389 182.671875 220.30859375 C186.4139386 227.27583159 190.04341073 234.28200448 193.54980469 241.37109375 C196.23644977 246.78151425 199.05508614 252.11383059 201.94921875 257.41601562 C203.26646781 259.84723457 204.51108372 262.24594307 205.53515625 264.81640625 C206.97026524 268.39053701 208.8095575 271.73405111 210.625 275.125 C215.36047297 284.04834853 220.00407084 293.01702239 224.625 302 C225.35432482 303.41715732 226.08365429 304.83431224 226.81298828 306.25146484 C229.44228025 311.36134381 232.06994075 316.47206135 234.69763184 321.58276367 C244.00275878 339.6799077 253.31269626 357.77148492 262.8828125 375.73046875 C266.89674361 383.27107612 270.82303789 390.84142022 274.61376953 398.49682617 C276.85184334 403.0001861 279.17708583 407.44809889 281.5625 411.875 C284.30076178 416.95672302 286.93872348 422.07682884 289.5 427.25 C292.26770243 432.83988719 295.12533391 438.37228619 298.0625 443.875 C301.32376906 449.98561763 304.47116848 456.1410737 307.53857422 462.35107422 C309.6243803 466.55474388 311.79473433 470.70308363 314.02099609 474.83398438 C319.8167697 485.59583106 325.19080255 496.5831716 328.5625 508.375 C329.09037109 510.01275391 329.09037109 510.01275391 329.62890625 511.68359375 C336.46732813 534.73292395 334.69512535 562.90712742 323.5625 584.375 C321.86196454 587.23659071 320.08856896 590.02339655 318.2421875 592.79296875 C316.73715506 595.10651861 315.44990454 597.42419395 314.1875 599.875 C311.04713354 605.62381418 306.83025627 610.43698713 302.5625 615.375 C301.799375 616.28507812 301.03625 617.19515625 300.25 618.1328125 C281.17775221 640.15373018 252.59821042 654.75258805 223.5625 657.375 C208.45527927 658.10406938 194.25584218 656.61798695 179.56152344 653.0456543 C161.78923012 648.728014 143.77632543 645.38439585 125.80859375 641.99560547 C122.70187851 641.40164713 119.60082468 640.78404137 116.5 640.16015625 C48.99877094 626.80738403 -18.45752476 624.84227304 -86.4375 635.375 C-88.19257497 635.63631395 -89.94777373 635.89679854 -91.703125 636.15625 C-100.49132518 637.47656801 -109.21942681 639.05225366 -117.94213867 640.74951172 C-126.89013092 642.48604487 -135.86513525 644.06467821 -144.84545898 645.62451172 C-150.78310825 646.66852192 -156.61289577 647.81920064 -162.4375 649.375 C-169.07387918 651.09204506 -175.65242722 652.63613393 -182.4140625 653.76953125 C-185.33903727 654.35528201 -188.17452925 655.12842768 -191.04321289 655.94140625 C-217.06038072 663.13851422 -245.54089558 655.7265676 -268.53515625 642.72265625 C-296.00660294 626.53901527 -317.51303185 599.94477736 -325.76293945 569.03125 C-328.45233244 558.44109594 -329.96583578 548.57425983 -329.875 537.625 C-329.86597656 536.31168701 -329.85695313 534.99837402 -329.84765625 533.64526367 C-329.34666156 505.41734421 -316.42166658 482.84834646 -303.4375 458.375 C-301.64395344 454.98015709 -299.85306229 451.58391765 -298.0625 448.1875 C-297.66047363 447.42622803 -297.25844727 446.66495605 -296.84423828 445.88061523 C-292.92269375 438.43746855 -289.17063123 430.91391839 -285.4375 423.375 C-278.28125818 408.93548249 -270.93811871 394.61176049 -263.3125 380.4140625 C-259.59776684 373.49502437 -255.99449252 366.5375591 -252.50952148 359.49975586 C-250.04414091 354.53955195 -247.48162652 349.63728683 -244.875 344.75 C-240.93240025 337.35281232 -237.15296805 329.88942976 -233.4375 322.375 C-229.00922524 313.4210238 -224.48856002 304.53182481 -219.78686523 295.71801758 C-217.32826752 291.09560165 -214.94715959 286.44229768 -212.625 281.75 C-209.32161129 275.07580648 -205.89434101 268.47091029 -202.4375 261.875 C-199.1114631 255.52641169 -195.80224491 249.17447319 -192.625 242.75 C-188.50556849 234.42158412 -184.21054669 226.184253 -179.93206787 217.93688965 C-176.32452281 210.98100848 -172.72457178 204.02359194 -169.25 197 C-165.72176087 189.87572608 -162.04498101 182.83196823 -158.35742188 175.7890625 C-154.12678105 167.70711602 -149.9343012 159.60598716 -145.75 151.5 C-141.3604867 142.99688251 -136.9398261 134.51247014 -132.43676758 126.06884766 C-129.68388784 120.88780361 -127.05852284 115.64887784 -124.45532227 110.39135742 C-122.02881209 105.5089139 -119.50449155 100.68489289 -116.9375 95.875 C-114.04479079 90.45417257 -111.2271949 85.00593708 -108.5 79.5 C-99.69515837 61.81296498 -91.10314569 45.89006425 -77.4375 31.375 C-76.88707031 30.76011719 -76.33664062 30.14523437 -75.76953125 29.51171875 C-57.0162824 9.36934035 -26.78864379 -0.31118393 0 0 Z M-34.4375 79.375 C-40.0498014 86.53950962 -44.22596742 94.33730618 -48.3125 102.4375 C-48.92641894 103.64080323 -49.54117477 104.84367982 -50.15673828 106.04614258 C-51.36846241 108.41342255 -52.57764648 110.78192651 -53.78515625 113.15136719 C-55.91774167 117.31192538 -58.10717688 121.44018919 -60.3125 125.5625 C-64.07242101 132.62613149 -67.671656 139.76158509 -71.22558594 146.93066406 C-79.11544189 162.84388683 -87.07841113 178.7025857 -95.4375 194.375 C-101.60362637 205.94098684 -107.58884047 217.57446568 -113.40087891 229.32226562 C-119.57114638 241.78176058 -125.9911372 254.103032 -132.5703125 266.3515625 C-136.28379416 273.26653865 -139.88449976 280.22061056 -143.36767578 287.25463867 C-145.81166621 292.17175712 -148.35228374 297.03082476 -150.9375 301.875 C-154.82392299 309.16811179 -158.55529916 316.52686708 -162.22558594 323.93066406 C-169.70943522 339.02500311 -177.25374444 354.07326706 -185.15429688 368.95410156 C-192.52472674 382.85919718 -199.70566436 396.84865248 -206.7109375 410.94116211 C-210.37180926 418.28992111 -214.13469768 425.5753754 -217.98535156 432.82617188 C-220.49574503 437.56052435 -222.93538879 442.32243992 -225.3125 447.125 C-231.84848368 460.31666167 -238.72022511 473.34416333 -245.6875 486.3125 C-249.09429357 492.67373281 -252.34729374 499.10266716 -255.546875 505.5703125 C-256.7456381 507.99347416 -257.96550098 510.40063022 -259.203125 512.8046875 C-259.73421875 513.83851563 -260.2653125 514.87234375 -260.8125 515.9375 C-261.27398438 516.82566406 -261.73546875 517.71382812 -262.2109375 518.62890625 C-267.25060286 529.91197869 -267.24006849 543.83152919 -263.3125 555.5 C-261.04548815 561.40816217 -258.42088805 566.46397364 -254.4375 571.375 C-253.79039062 572.19484375 -253.14328125 573.0146875 -252.4765625 573.859375 C-243.02705191 585.11691469 -231.37771393 592.3000148 -216.62109375 593.75 C-208.06991862 594.01748544 -200.59108167 592.72780463 -192.3828125 590.44140625 C-188.10327188 589.25125663 -183.78387394 588.44408493 -179.41308594 587.65869141 C-172.15292314 586.34319531 -164.92127268 584.89016466 -157.6875 583.4375 C-156.36670932 583.17288251 -155.04590856 582.90831535 -153.72509766 582.64379883 C-148.04425761 581.5048659 -142.36429317 580.36206916 -136.6875 579.203125 C-119.77294983 575.75834426 -102.81585894 573.03267825 -85.69921875 570.80175781 C-83.39403978 570.50015206 -81.08939992 570.19441226 -78.78515625 569.88574219 C-52.07735012 566.31528774 -25.71057339 564.20365389 1.25 564.1875 C2.24115814 564.18641235 3.23231628 564.18532471 4.25350952 564.1842041 C7.11048867 564.1845599 9.96727289 564.19373791 12.82421875 564.20703125 C13.67318726 564.20824478 14.52215576 564.20945831 15.39685059 564.21070862 C20.16064283 564.24759482 24.80631191 564.54190053 29.53289795 565.14498901 C32.29921579 565.45849062 35.05563702 565.53189702 37.83666992 565.61450195 C60.5304032 566.33843519 83.2517874 570.11691106 105.60644531 573.87939453 C108.56687772 574.37573396 111.52914736 574.85933757 114.4921875 575.33984375 C136.20349062 578.87751952 157.79128144 582.80677635 179.21044922 587.83154297 C183.62412963 588.85135329 188.05762329 589.77487864 192.4921875 590.69921875 C194.80811199 591.20895785 197.10564524 591.80330154 199.390625 592.4375 C203.75921922 593.5366645 207.94711541 593.72116466 212.4375 593.6875 C213.22906494 593.68186035 214.02062988 593.6762207 214.83618164 593.67041016 C228.71681768 593.38262524 240.20040225 587.35362611 250.2109375 577.8515625 C262.63955389 564.76228876 267.25632718 550.7354953 266.890625 533.02734375 C266.21569058 519.41524432 257.95113405 507.05198942 251.5625 495.375 C250.18157084 492.83650044 248.80620917 490.29510907 247.4375 487.75 C247.11402588 487.14905518 246.79055176 486.54811035 246.45727539 485.92895508 C244.04430559 481.39668935 241.84249361 476.78460482 239.6875 472.125 C236.58788013 465.42567514 233.24675269 458.89547684 229.77050781 452.38476562 C225.68847683 444.69985854 221.81106522 436.91616721 217.9375 429.125 C212.1637356 417.49443633 212.1637356 417.49443633 206.125 406 C202.55049737 399.39212414 199.18360508 392.69328465 195.84667969 385.96386719 C193.09182022 380.4101543 190.3294413 374.86020094 187.5625 369.3125 C187.25598511 368.69761719 186.94947021 368.08273437 186.63366699 367.44921875 C183.240105 360.64684683 179.82016897 353.86599356 176.1875 347.1875 C173.50534067 342.23800683 171.04867052 337.23175821 168.6875 332.125 C165.16708452 324.5223823 161.33294481 317.1217185 157.3984375 309.7265625 C154.07038809 303.46830494 150.81870232 297.17085053 147.5625 290.875 C141.25703515 278.69699803 134.94271942 266.52264464 128.453125 254.44140625 C125.15101326 248.29373976 121.91137191 242.12796811 118.8125 235.875 C114.60767472 227.39220386 110.21817359 219.00914939 105.828125 210.62109375 C102.43155711 204.13085626 99.05761576 197.62900407 95.6875 191.125 C95.10419922 189.99956787 94.52089844 188.87413574 93.91992188 187.71459961 C91.53671007 183.11592951 89.15411519 178.51693989 86.77148438 173.91796875 C71.65873708 144.70646421 71.65873708 144.70646421 56.3527832 115.59594727 C54.04293381 111.2347415 51.79213447 106.85020957 49.58984375 102.43359375 C41.52804861 86.37393524 33.80982308 73.1043205 16.0625 66.4375 C-2.12865339 61.7439492 -20.9843351 66.22079432 -34.4375 79.375 Z " fill="#70EFBF" transform="translate(798.4375,471.625)"/>
<path d="M0 0 C30.03 0 60.06 0 91 0 C90.67 1.32 90.34 2.64 90 4 C88.35 4.33 86.7 4.66 85 5 C85 5.66 85 6.32 85 7 C81.54132399 6.7123166 78.08314179 6.41902982 74.625 6.125 C73.67882812 6.04636719 72.73265625 5.96773438 71.7578125 5.88671875 C67.16596483 5.49399494 62.58229289 5.08064591 58.00732422 4.52294922 C45.64577035 3.02576762 33.31295649 2.376283 20.875 1.875 C18.83721569 1.78832031 16.79945499 1.70108376 14.76171875 1.61328125 C9.84139327 1.40245905 4.92081375 1.19908587 0 1 C0 0.67 0 0.34 0 0 Z " fill="#EBEDF0" transform="translate(820,0)"/>
<path d="M0 0 C1.18207031 0.12117188 2.36414063 0.24234375 3.58203125 0.3671875 C29.64036083 2.93500741 55.8373019 4.09669842 82 5 C82 5.33 82 5.66 82 6 C58.57 6 35.14 6 11 6 C11 5.01 11 4.02 11 3 C8.03 3 5.06 3 2 3 C2 2.34 2 1.68 2 1 C1.34 0.67 0.68 0.34 0 0 Z " fill="#D2D9E4" transform="translate(702,1594)"/>
<path d="M0 0 C0.33 0 0.66 0 1 0 C1.66 2.97 2.32 5.94 3 9 C3.33 8.34 3.66 7.68 4 7 C4.66 7 5.32 7 6 7 C6 30.43 6 53.86 6 78 C5.67 78 5.34 78 5 78 C4.98541748 77.08114014 4.97083496 76.16228027 4.95581055 75.21557617 C4.6217675 56.25066563 3.6711446 37.68102111 1.32568359 18.84375 C0.60859595 12.58240301 0.27953394 6.29433327 0 0 Z " fill="#D4DAE5" transform="translate(1594,702)"/>
<path d="M0 0 C0 0.66 0 1.32 0 2 C-0.99 2 -1.98 2 -3 2 C-3.33 2.99 -3.66 3.98 -4 5 C-22.48 5 -40.96 5 -60 5 C-60 4.67 -60 4.34 -60 4 C-58.70900391 3.91435791 -57.41800781 3.82871582 -56.08789062 3.74047852 C-51.27197777 3.42038378 -46.45627367 3.0972363 -41.640625 2.77319336 C-39.56125315 2.6336957 -37.4818265 2.4950123 -35.40234375 2.35717773 C-32.40349589 2.1582599 -29.40486104 1.95635911 -26.40625 1.75390625 C-25.02451599 1.66321617 -25.02451599 1.66321617 -23.61486816 1.57069397 C-0.44755476 -0.00799205 -0.44755476 -0.00799205 0 0 Z " fill="#E2E7EF" transform="translate(892,1595)"/>
<path d="M0 0 C-1.87182007 11.25656179 -17.21398651 24.36566328 -26 31 C-26.99 31 -27.98 31 -29 31 C-27.4957265 27.23931624 -27.4957265 27.23931624 -25.1875 26.125 C-22.86027555 24.92814171 -21.97741639 23.89810978 -20.375 21.875 C-19.59125 20.92625 -18.8075 19.9775 -18 19 C-17.34 19 -16.68 19 -16 19 C-15.67 18.01 -15.34 17.02 -15 16 C-14.34 16 -13.68 16 -13 16 C-12.34 14.35 -11.68 12.7 -11 11 C-10.34 11 -9.68 11 -9 11 C-9 10.34 -9 9.68 -9 9 C-8.34 8.67 -7.68 8.34 -7 8 C-6.690625 6.845 -6.38125 5.69 -6.0625 4.5 C-5.5365625 2.7675 -5.5365625 2.7675 -5 1 C-2 0 -2 0 0 0 Z " fill="#75E6D3" transform="translate(1110,1073)"/>
<path d="M0 0 C-0.33 1.32 -0.66 2.64 -1 4 C-2.5625 3.0234375 -4.125 2.046875 -5.6875 1.0703125 C-12.08043024 -1.88857751 -18.4436017 -2.35791285 -25.375 -2.3125 C-26.20845947 -2.31048584 -27.04191895 -2.30847168 -27.90063477 -2.30639648 C-34.03731341 -2.20638425 -39.27671096 -1.25888504 -45 1 C-46.32845837 1.35226019 -47.66072647 1.69139782 -49 2 C-48.3515625 0.109375 -48.3515625 0.109375 -47 -2 C-31.4739091 -8.56307943 -15.23792509 -4.93821647 0 0 Z " fill="#6CCCB1" transform="translate(825,540)"/>
<path d="M0 0 C0.66 0.33 1.32 0.66 2 1 C1.7312159 4.94216678 1.44655191 6.56489814 -1.4375 9.375 C-4 11 -4 11 -6 11 C-7.47047336 14.91063224 -7.47047336 14.91063224 -8 19 C-6.54166642 20.62514468 -6.54166642 20.62514468 -5 22 C-5.99 22.33 -6.98 22.66 -8 23 C-8.33 22.67 -8.66 22.34 -9 22 C-9.66 22.66 -10.32 23.32 -11 24 C-11.33 23.01 -11.66 22.02 -12 21 C-13.98 21.99 -13.98 21.99 -16 23 C-15.42025875 19.30622003 -13.92895994 17.54729013 -11.375 14.875 C-7.08775103 10.22403135 -3.50933201 5.25303135 0 0 Z " fill="#74E9CF" transform="translate(1061,1032)"/>
<path d="M0 0 C0.33 0 0.66 0 1 0 C1 16.83 1 33.66 1 51 C0.34 51 -0.32 51 -1 51 C-1.33 51.66 -1.66 52.32 -2 53 C-1.48467651 35.32490131 -0.93465296 17.65897505 0 0 Z " fill="#C6CDDC" transform="translate(1599,820)"/>
<path d="M0 0 C0.99 0.66 1.98 1.32 3 2 C2.02768377 11.23700415 -2.26565928 18.84153972 -7.31640625 26.45703125 C-8.95418535 28.93079968 -10.49137606 31.44588591 -12 34 C-12.33 33.34 -12.66 32.68 -13 32 C-12.0390625 29.72265625 -12.0390625 29.72265625 -10.625 27.0625 C-9.19875971 24.35742415 -7.96882638 21.90647913 -7 19 C-6.34 19.33 -5.68 19.66 -5 20 C-4.690625 18.865625 -4.38125 17.73125 -4.0625 16.5625 C-3 13 -3 13 -2 12 C-1.9684421 9.44380996 -2.06826631 6.90219659 -2.16015625 4.34765625 C-2 2 -2 2 0 0 Z " fill="#75DCD1" transform="translate(1124,1038)"/>
<path d="M0 0 C16.5 0 33 0 50 0 C50.495 1.485 50.495 1.485 51 3 C25.755 2.01 25.755 2.01 0 1 C0 0.67 0 0.34 0 0 Z " fill="#C8D0E1" transform="translate(820,0)"/>
<path d="M0 0 C0.33 0 0.66 0 1 0 C1.66 15.84 2.32 31.68 3 48 C2.01 48.495 2.01 48.495 1 49 C0.04837628 46.14512885 -0.12163139 44.39545683 -0.11352539 41.43676758 C-0.11344986 40.51603958 -0.11337433 39.59531158 -0.11329651 38.64668274 C-0.10813522 37.65597275 -0.10297394 36.66526276 -0.09765625 35.64453125 C-0.0962413 34.62775803 -0.09482635 33.6109848 -0.09336853 32.56340027 C-0.08776707 29.31307036 -0.07521432 26.06280912 -0.0625 22.8125 C-0.05748519 20.61002704 -0.05292225 18.40755299 -0.04882812 16.20507812 C-0.03779717 10.80336196 -0.02105762 5.40168588 0 0 Z " fill="#D5DCE9" transform="translate(0,824)"/>
<path d="M0 0 C5.94 0 11.88 0 18 0 C17.67 0.99 17.34 1.98 17 3 C17.99 3.33 18.98 3.66 20 4 C20 4.33 20 4.66 20 5 C17.39547729 4.85913398 14.79149803 4.71251536 12.1875 4.5625 C11.08051758 4.50352539 11.08051758 4.50352539 9.95117188 4.44335938 C6.76928658 4.25618965 4.03837622 4.01279207 1 3 C0.67 2.01 0.34 1.02 0 0 Z " fill="#DADFE7" transform="translate(870,0)"/>
<path d="M0 0 C1.98684692 -0.36076355 1.98684692 -0.36076355 4.44970703 -0.34057617 C5.37051056 -0.34034958 6.29131409 -0.34012299 7.24002075 -0.33988953 C8.73382767 -0.31666374 8.73382767 -0.31666374 10.2578125 -0.29296875 C11.27600067 -0.28872391 12.29418884 -0.28447906 13.3432312 -0.28010559 C16.60408673 -0.26327579 19.86433041 -0.22561546 23.125 -0.1875 C25.33202234 -0.17245874 27.53905434 -0.15876937 29.74609375 -0.14648438 C35.16427223 -0.1133583 40.58209242 -0.06311653 46 0 C46 0.33 46 0.66 46 1 C45.22100342 1.02505615 44.44200684 1.0501123 43.6394043 1.07592773 C28.41690807 1.57030293 13.20497733 2.11004491 -2 3 C-1.34 2.01 -0.68 1.02 0 0 Z " fill="#E0E6F2" transform="translate(728,0)"/>
<path d="M0 0 C0.33 0 0.66 0 1 0 C1.51143331 6.47452803 1.97306781 12.93958299 2.21875 19.4296875 C2.25556885 20.36079346 2.2923877 21.29189941 2.33032227 22.2512207 C2.40084537 24.10104647 2.4640357 25.9511688 2.51928711 27.80151367 C2.69605997 32.33105329 3.06079825 35.83192321 5 40 C4.625 42.3125 4.625 42.3125 4 44 C-0.91870272 34.83649557 -0.25244171 24.48617722 -0.125 14.375 C-0.11494398 12.97526686 -0.10582279 11.57552669 -0.09765625 10.17578125 C-0.07426238 6.78367075 -0.04148173 3.3919294 0 0 Z " fill="#74D6B7" transform="translate(469,994)"/>
<path d="M0 0 C1.32 0.66 2.64 1.32 4 2 C3.01 2.495 3.01 2.495 2 3 C1.26924352 5.3140622 0.59861742 7.64828869 0 10 C-1.32 10 -2.64 10 -4 10 C-4 11.32 -4 12.64 -4 14 C-4.99 14.33 -5.98 14.66 -7 15 C-7 14.34 -7 13.68 -7 13 C-7.66 12.67 -8.32 12.34 -9 12 C-6.03 8.04 -3.06 4.08 0 0 Z " fill="#71F1B3" transform="translate(715,509)"/>
<path d="M0 0 C0.82638376 2.89234315 1 4.88742431 1 8 C0.02246356 9.02196992 -0.9805881 10.01979625 -2 11 C-2.33 11.86625 -2.66 12.7325 -3 13.625 C-3.33 14.40875 -3.66 15.1925 -4 16 C-4.99 16.33 -5.98 16.66 -7 17 C-7.39044206 18.31774196 -7.70955086 19.65667272 -8 21 C-8.96887581 23.01526169 -9.9641321 25.01833966 -11 27 C-11.66 26.67 -12.32 26.34 -13 26 C-8.66666667 17.33333333 -4.33333333 8.66666667 0 0 Z " fill="#71D9B5" transform="translate(662,605)"/>
<path d="M0 0 C0 3.61029169 -0.96092582 6.55806676 -2 10 C-2.99 10 -3.98 10 -5 10 C-5.66 11.32 -6.32 12.64 -7 14 C-7.33 13.01 -7.66 12.02 -8 11 C-9.98 12.98 -11.96 14.96 -14 17 C-14.66 16.67 -15.32 16.34 -16 16 C-10.72 10.72 -5.44 5.44 0 0 Z " fill="#EAF0F4" transform="translate(1375,1356)"/>
<path d="M0 0 C0.99 0.33 1.98 0.66 3 1 C6 7.11111111 6 7.11111111 6 10 C6.66 10 7.32 10 8 10 C8.66 11.65 9.32 13.3 10 15 C10.66 15 11.32 15 12 15 C12.66 18.63 13.32 22.26 14 26 C13.34 26 12.68 26 12 26 C11.72027344 25.29617188 11.44054688 24.59234375 11.15234375 23.8671875 C7.83198846 15.68907768 4.0269457 7.84500084 0 0 Z " fill="#76E6D0" transform="translate(1052,972)"/>
<path d="M0 0 C1.1796875 1.609375 1.1796875 1.609375 2 4 C0.8828125 7.015625 0.8828125 7.015625 -0.875 10.25 C-1.44992187 11.32765625 -2.02484375 12.4053125 -2.6171875 13.515625 C-3.30167969 14.74539063 -3.30167969 14.74539063 -4 16 C-5.56640625 14.25 -5.56640625 14.25 -7 12 C-6.45400131 7.09559074 -3.74395876 3.09844863 0 0 Z " fill="#71E5B7" transform="translate(664,736)"/>
<path d="M0 0 C0.66 0.99 1.32 1.98 2 3 C1.34 3.66 0.68 4.32 0 5 C-0.28875 5.78375 -0.5775 6.5675 -0.875 7.375 C-2.14063238 10.32814223 -3.67508154 11.82038894 -6 14 C-6.99 15.485 -6.99 15.485 -8 17 C-10.125 18.1875 -10.125 18.1875 -12 19 C-10.42686828 14.27156386 -7.79358765 10.6566157 -4.875 6.6875 C-4.17310547 5.71973633 -4.17310547 5.71973633 -3.45703125 4.73242188 C-2.3094071 3.15151106 -1.15534523 1.57527699 0 0 Z " fill="#DEE4ED" transform="translate(1458,1254)"/>
<path d="M0 0 C2.0625 0.4375 2.0625 0.4375 4 1 C1.2089613 2.64690003 -1.58293688 4.29233741 -4.375 5.9375 C-5.1690625 6.40607422 -5.963125 6.87464844 -6.78125 7.35742188 C-7.54179687 7.80537109 -8.30234375 8.25332031 -9.0859375 8.71484375 C-9.7876709 9.12855225 -10.4894043 9.54226074 -11.21240234 9.96850586 C-12.45330316 10.68454054 -13.71858188 11.35929094 -15 12 C-15.33 11.01 -15.66 10.02 -16 9 C-13.69 8.34 -11.38 7.68 -9 7 C-9 5.35 -9 3.7 -9 2 C-6.06193103 1.02064368 -4.04722362 1 -1 1 C-0.67 0.67 -0.34 0.34 0 0 Z " fill="#E7EBF3" transform="translate(387,112)"/>
<path d="M0 0 C2.475 0.495 2.475 0.495 5 1 C5.33 3.64 5.66 6.28 6 9 C6.66 9 7.32 9 8 9 C8.26554687 9.68707031 8.53109375 10.37414062 8.8046875 11.08203125 C9.15789062 11.98308594 9.51109375 12.88414062 9.875 13.8125 C10.39707031 15.15248047 10.39707031 15.15248047 10.9296875 16.51953125 C11.98832155 19.17711591 11.98832155 19.17711591 14 22 C13.625 24.1875 13.625 24.1875 13 26 C11.39128326 22.98156906 9.78886951 19.95983439 8.1875 16.9375 C7.73568359 16.08994141 7.28386719 15.24238281 6.81835938 14.36914062 C4.32267563 9.65102318 2.01829731 4.94181103 0 0 Z " fill="#144057" transform="translate(1065,856)"/>
<path d="M0 0 C0.33 0 0.66 0 1 0 C1.33 3.3 1.66 6.6 2 10 C1.67 10 1.34 10 1 10 C0.814375 11.2065625 0.814375 11.2065625 0.625 12.4375 C0.41875 13.283125 0.2125 14.12875 0 15 C-0.99 15.495 -0.99 15.495 -2 16 C-2.33 16.99 -2.66 17.98 -3 19 C-3.66 19 -4.32 19 -5 19 C-3.9559635 12.31816637 -2.5957524 6.2534035 0 0 Z " fill="#6CD3B0" transform="translate(476,968)"/>
<path d="M0 0 C-0.33 0.78375 -0.66 1.5675 -1 2.375 C-2.11866511 4.84332497 -2.11866511 4.84332497 -2 7 C-2.99 7.33 -3.98 7.66 -5 8 C-5 7.34 -5 6.68 -5 6 C-8.63 6.33 -12.26 6.66 -16 7 C-12.74658227 4.55993671 -10.54858018 3.24355138 -6.875 1.8125 C-5.57175781 1.29623047 -5.57175781 1.29623047 -4.2421875 0.76953125 C-2 0 -2 0 0 0 Z " fill="#75DEB6" transform="translate(762,478)"/>
<path d="M0 0 C1.23701372 3.71104116 0.42126979 4.48862758 -1 8 C-1 8.886875 -1 9.77375 -1 10.6875 C-1 11.450625 -1 12.21375 -1 13 C-1.66 13.66 -2.32 14.32 -3 15 C-3.639375 15.845625 -4.27875 16.69125 -4.9375 17.5625 C-7 20 -7 20 -10 21 C-8.51991304 15.99886406 -6.3681664 11.67084403 -3.875 7.125 C-3.50246094 6.43664062 -3.12992188 5.74828125 -2.74609375 5.0390625 C-1.83500474 3.35705202 -0.91809685 1.67819564 0 0 Z " fill="#74DCB8" transform="translate(550,823)"/>
<path d="M0 0 C0.99 0.33 1.98 0.66 3 1 C-0.83909459 5.75316473 -4.86074553 10.60286569 -10 14 C-10.99 14 -11.98 14 -13 14 C-11.4957265 10.23931624 -11.4957265 10.23931624 -9.1875 9.125 C-6.86027555 7.92814171 -5.97741639 6.89810978 -4.375 4.875 C-3.59125 3.92625 -2.8075 2.9775 -2 2 C-1.34 2 -0.68 2 0 2 C0 1.34 0 0.68 0 0 Z " fill="#75DED2" transform="translate(1094,1090)"/>
<path d="M0 0 C13.365 0.495 13.365 0.495 27 1 C21.69609294 3.65195353 19.7065221 4.07876175 13.75 3.6875 C12.44546875 3.60886719 11.1409375 3.53023437 9.796875 3.44921875 C6.25928057 3.0306762 3.31786774 2.26223229 0 1 C0 0.67 0 0.34 0 0 Z " fill="#76E0D1" transform="translate(997,1064)"/>
<path d="M0 0 C1.80409582 2.2141176 2.98960766 3.97020864 3.9375 6.6875 C4.76212503 9.19306477 4.76212503 9.19306477 7.125 9.8125 C7.74375 9.874375 8.3625 9.93625 9 10 C8.67 10.66 8.34 11.32 8 12 C8.60183749 14.02045442 9.27306096 16.02111039 10 18 C10.33 18.99 10.66 19.98 11 21 C8 20 8 20 6.92504883 18.48120117 C6.60560303 17.84158447 6.28615723 17.20196777 5.95703125 16.54296875 C5.60576172 15.84236328 5.25449219 15.14175781 4.89257812 14.41992188 C4.53615234 13.68322266 4.17972656 12.94652344 3.8125 12.1875 C3.44447266 11.46240234 3.07644531 10.73730469 2.69726562 9.99023438 C0.8451395 6.23443873 0 4.32708051 0 0 Z " fill="#75E1CD" transform="translate(1035,935)"/>
<path d="M0 0 C0.99 0.33 1.98 0.66 3 1 C4.0625 3.3125 4.0625 3.3125 5 6 C6.19069301 8.53022264 7.43682141 10.65523212 9 13 C9 13.99 9 14.98 9 16 C9.99 16 10.98 16 12 16 C12 18.31 12 20.62 12 23 C8.81387292 19.14365201 6.62969027 14.78024848 4.3125 10.375 C3.89677734 9.59898437 3.48105469 8.82296875 3.05273438 8.0234375 C2.66021484 7.2809375 2.26769531 6.5384375 1.86328125 5.7734375 C1.50532471 5.09716309 1.14736816 4.42088867 0.77856445 3.72412109 C0 2 0 2 0 0 Z " fill="#113F53" transform="translate(968,667)"/>
<path d="M0 0 C2 4 2 4 1.4375 7 C-0.19401385 10.40489848 -1.91400721 11.88853125 -5 14 C-5.66 13.67 -6.32 13.34 -7 13 C-3.535 6.565 -3.535 6.565 0 0 Z " fill="#173C56" transform="translate(565,935)"/>
<path d="M0 0 C0.66 0.33 1.32 0.66 2 1 C2 1.99 2 2.98 2 4 C3.32 4 4.64 4 6 4 C9 8.07142857 9 8.07142857 9 11 C9.66 11 10.32 11 11 11 C11 11.66 11 12.32 11 13 C11.66 13 12.32 13 13 13 C12.67 13.99 12.34 14.98 12 16 C7.71 11.71 3.42 7.42 -1 3 C-0.67 2.01 -0.34 1.02 0 0 Z " fill="#333F60" transform="translate(221,1349)"/>
<path d="M0 0 C7.32557399 -0.22311393 13.93910871 -0.08354169 21 2 C21.33 2.66 21.66 3.32 22 4 C21.10796875 3.91621094 20.2159375 3.83242187 19.296875 3.74609375 C18.12640625 3.64425781 16.9559375 3.54242187 15.75 3.4375 C14.58984375 3.33308594 13.4296875 3.22867187 12.234375 3.12109375 C9.42884117 3.01605565 7.65257466 3.33093541 5 4 C2.25 2.625 2.25 2.625 0 1 C0 0.67 0 0.34 0 0 Z " fill="#76E4CC" transform="translate(870,1041)"/>
<path d="M0 0 C0.33 0 0.66 0 1 0 C1.81274927 4.29131612 2.16234695 8.38343017 2.1875 12.75 C2.20167969 13.87921875 2.21585937 15.0084375 2.23046875 16.171875 C2 19 2 19 0 21 C-0.99 19.35 -1.98 17.7 -3 16 C-2.34 15.01 -1.68 14.02 -1 13 C-0.5396236 9.80193335 -0.5396236 9.80193335 -0.375 6.3125 C-0.30023438 5.13300781 -0.22546875 3.95351563 -0.1484375 2.73828125 C-0.09945313 1.83464844 -0.05046875 0.93101562 0 0 Z " fill="#DCE2EA" transform="translate(3,876)"/>
<path d="M0 0 C0.33 0.66 0.66 1.32 1 2 C1.66 2.33 2.32 2.66 3 3 C0.79050976 6.7561334 -1.56481767 10.38650365 -4 14 C-4.66 14.99 -5.32 15.98 -6 17 C-6.71484375 15.421875 -6.71484375 15.421875 -7 13 C-5.94290501 10.61505544 -4.8682111 8.48765933 -3.5625 6.25 C-3.22412109 5.64800781 -2.88574219 5.04601562 -2.53710938 4.42578125 C-1.70231735 2.94431935 -0.85258506 1.47129392 0 0 Z " fill="#184157" transform="translate(617,833)"/>
<path d="M0 0 C0.66 0.66 1.32 1.32 2 2 C-0.97 7.61 -3.94 13.22 -7 19 C-7.33 17.68 -7.66 16.36 -8 15 C-7.34 15 -6.68 15 -6 15 C-6 13.68 -6 12.36 -6 11 C-5.34 11 -4.68 11 -4 11 C-3.96261719 10.37351562 -3.92523437 9.74703125 -3.88671875 9.1015625 C-3.82097656 8.28429687 -3.75523437 7.46703125 -3.6875 6.625 C-3.62949219 5.81289063 -3.57148437 5.00078125 -3.51171875 4.1640625 C-3 2 -3 2 0 0 Z " fill="#71D8B6" transform="translate(629,806)"/>
<path d="M0 0 C0.66 0.33 1.32 0.66 2 1 C-2.92407117 7.16631404 -7.78438331 12.68550133 -16 14 C-12.04058225 9.77662107 -7.65581029 6.24983886 -3.109375 2.671875 C-1.13248821 1.17080011 -1.13248821 1.17080011 0 0 Z " fill="#DFE5F0" transform="translate(1307,1418)"/>
<path d="M0 0 C0.99 0.66 1.98 1.32 3 2 C2.01 2.33 1.02 2.66 0 3 C0.33 3.99 0.66 4.98 1 6 C-0.2065625 7.0828125 -0.2065625 7.0828125 -1.4375 8.1875 C-4.02292072 11.02515689 -4.68042813 12.27166147 -5 16 C-6.32 15.34 -7.64 14.68 -9 14 C-8.51789063 13.32453125 -8.03578125 12.6490625 -7.5390625 11.953125 C-6.90742187 11.06109375 -6.27578125 10.1690625 -5.625 9.25 C-4.99851562 8.36828125 -4.37203125 7.4865625 -3.7265625 6.578125 C-2.28519059 4.42585021 -1.08501907 2.34539477 0 0 Z " fill="#183E5B" transform="translate(1115,1066)"/>
<path d="M0 0 C0.66 0 1.32 0 2 0 C3.18982084 7.41226226 2.67959957 13.69860023 1 21 C0.67 21 0.34 21 0 21 C0 14.07 0 7.14 0 0 Z " fill="#79E1D3" transform="translate(1065,1000)"/>
<path d="M0 0 C1 3 1 3 -0.328125 6.21484375 C-0.95850108 7.46096694 -1.59958765 8.70171653 -2.25 9.9375 C-2.71986328 10.86852539 -2.71986328 10.86852539 -3.19921875 11.81835938 C-4.88685449 15.10609788 -6.66906614 18.12949812 -9 21 C-8.91291331 19.54054712 -8.80473093 18.08234132 -8.6875 16.625 C-8.62949219 15.81289063 -8.57148437 15.00078125 -8.51171875 14.1640625 C-8 12 -8 12 -5 10 C-4.27617533 7.94074861 -4.27617533 7.94074861 -4 6 C-3.34 6 -2.68 6 -2 6 C-1.855625 5.195625 -1.71125 4.39125 -1.5625 3.5625 C-1 1 -1 1 0 0 Z " fill="#154355" transform="translate(571,779)"/>
<path d="M0 0 C0.99 0 1.98 0 3 0 C3.24234375 0.66386719 3.4846875 1.32773437 3.734375 2.01171875 C5.88432653 7.71456772 5.88432653 7.71456772 9.25 12.75 C11.49051907 15.63066738 11.33099287 17.44182669 11 21 C8.0718145 17.39750049 5.97587472 13.4592011 3.8125 9.375 C3.44447266 8.694375 3.07644531 8.01375 2.69726562 7.3125 C0 2.24824617 0 2.24824617 0 0 Z " fill="#73D9C1" transform="translate(921,715)"/>
<path d="M0 0 C0.66 0.33 1.32 0.66 2 1 C2 3.31 2 5.62 2 8 C0.68 8 -0.64 8 -2 8 C-2.33 9.32 -2.66 10.64 -3 12 C-3.66 12 -4.32 12 -5 12 C-5 12.99 -5 13.98 -5 15 C-5.66 15 -6.32 15 -7 15 C-5.63408831 11.45756548 -4.09068516 8.07372071 -2.375 4.6875 C-1.70597656 3.36298828 -1.70597656 3.36298828 -1.0234375 2.01171875 C-0.68570313 1.34785156 -0.34796875 0.68398438 0 0 Z " fill="#75E5B7" transform="translate(637,654)"/>
<path d="M0 0 C0.61328125 1.79296875 0.61328125 1.79296875 1 4 C0.05358632 5.72965259 -0.9029862 7.4562863 -1.953125 9.125 C-3.22548309 11.23116949 -3.22548309 11.23116949 -4.0625 14.8125 C-5 18 -5 18 -8 20 C-8 16.25549268 -7.8562987 15.22157874 -6.25 12.109375 C-5.8890625 11.40039062 -5.528125 10.69140625 -5.15625 9.9609375 C-4.7746875 9.23132813 -4.393125 8.50171875 -4 7.75 C-3.6184375 7.00492188 -3.236875 6.25984375 -2.84375 5.4921875 C-1.90301637 3.65775693 -0.95245448 1.82837243 0 0 Z " fill="#72D8B2" transform="translate(674,582)"/>
<path d="M0 0 C1.22419163 3.93795909 0.48320272 6.16112237 -1 10 C-1.66 10 -2.32 10 -3 10 C-3 11.32 -3 12.64 -3 14 C-3.99 14.495 -3.99 14.495 -5 15 C-6.13350534 17.01669827 -6.13350534 17.01669827 -7 19 C-8 16 -8 16 -7.37915039 14.19067383 C-7.03875732 13.53607178 -6.69836426 12.88146973 -6.34765625 12.20703125 C-5.98349609 11.49482422 -5.61933594 10.78261719 -5.24414062 10.04882812 C-4.85419922 9.31083984 -4.46425781 8.57285156 -4.0625 7.8125 C-3.48338867 6.68811523 -3.48338867 6.68811523 -2.89257812 5.54101562 C-1.93728243 3.68939311 -0.96978423 1.84407548 0 0 Z " fill="#6ED5B2" transform="translate(648,632)"/>
<path d="M0 0 C0.721875 0.103125 1.44375 0.20625 2.1875 0.3125 C2.1875 0.9725 2.1875 1.6325 2.1875 2.3125 C0.140625 3.890625 0.140625 3.890625 -2.5625 5.5625 C-3.44421875 6.12453125 -4.3259375 6.6865625 -5.234375 7.265625 C-7.8125 8.3125 -7.8125 8.3125 -10.140625 7.484375 C-10.69234375 7.09765625 -11.2440625 6.7109375 -11.8125 6.3125 C-10.9771875 6.2196875 -10.9771875 6.2196875 -10.125 6.125 C-7.53794054 5.41310108 -7.53794054 5.41310108 -5.375 2.75 C-2.8125 0.3125 -2.8125 0.3125 0 0 Z " fill="#71E1CF" transform="translate(1077.8125,1104.6875)"/>
<path d="M0 0 C0.66 0 1.32 0 2 0 C3.23100852 2.46201703 4.46094998 4.92443757 5.68359375 7.390625 C6.70186511 9.40903826 7.77709584 11.3987725 8.875 13.375 C10.13461162 16.31409377 9.90995768 17.07068419 9 20 C7.49352402 17.04492094 5.99593635 14.08542659 4.5 11.125 C4.07074219 10.28324219 3.64148438 9.44148437 3.19921875 8.57421875 C2.79316406 7.76855469 2.38710938 6.96289062 1.96875 6.1328125 C1.59169922 5.38918457 1.21464844 4.64555664 0.82617188 3.87939453 C0 2 0 2 0 0 Z " fill="#74DAC7" transform="translate(1017,902)"/>
<path d="M0 0 C1.10176129 3.35216734 0.89303058 5.75121078 0.1875 9.1875 C0.01605469 10.06792969 -0.15539062 10.94835937 -0.33203125 11.85546875 C-0.66267578 12.91701172 -0.66267578 12.91701172 -1 14 C-1.99 14.495 -1.99 14.495 -3 15 C-3.99 14.67 -4.98 14.34 -6 14 C-4.50829734 9.0276578 -2.39542583 4.58154261 0 0 Z " fill="#1A3957" transform="translate(607,852)"/>
<path d="M0 0 C2.66648371 3.33105349 4.6669681 6.87197848 6.6875 10.625 C7.31011719 11.77226563 7.93273437 12.91953125 8.57421875 14.1015625 C10 17 10 17 10 19 C9.34 19 8.68 19 8 19 C6 16 6 16 6 13 C5.01 13 4.02 13 3 13 C2.49242138 11.58603098 1.99425075 10.16868271 1.5 8.75 C1.08234375 7.56664062 1.08234375 7.56664062 0.65625 6.359375 C0 4 0 4 0 0 Z " fill="#164557" transform="translate(936,745)"/>
<path d="M0 0 C2.05078125 0.03255208 4.1015625 0.06510417 6.15234375 0.09765625 C2.86280631 3.78193818 -0.44898114 5.93830665 -4.84765625 8.09765625 C-5.83765625 7.76765625 -6.82765625 7.43765625 -7.84765625 7.09765625 C-6.52765625 6.76765625 -5.20765625 6.43765625 -3.84765625 6.09765625 C-3.70328125 5.29328125 -3.55890625 4.48890625 -3.41015625 3.66015625 C-2.63730567 0.13939248 -2.63730567 0.13939248 0 0 Z " fill="#153552" transform="translate(740.84765625,482.90234375)"/>
<path d="M0 0 C0.99 0.66 1.98 1.32 3 2 C3 4.15634036 2.5534764 5.92446352 2 8 C1.34 7.67 0.68 7.34 0 7 C0 7.99 0 8.98 0 10 C-1.32 9.67 -2.64 9.34 -4 9 C-2.80100302 5.9168649 -1.52299523 2.93720508 0 0 Z " fill="#71E2B1" transform="translate(691,549)"/>
<path d="M0 0 C1.07886879 3.23660637 1.08497998 3.90979523 0 7 C-0.93113907 8.69396729 -1.91480307 10.35968414 -2.9375 12 C-4.76762123 14.9497777 -6.4993844 17.86828048 -8 21 C-8.66 20.67 -9.32 20.34 -10 20 C-6.66666667 13.33333333 -3.33333333 6.66666667 0 0 Z " fill="#164657" transform="translate(579,907)"/>
<path d="M0 0 C1.485 0.99 1.485 0.99 3 2 C3.36328125 5.1875 3.36328125 5.1875 3.3125 9 C3.30863281 10.258125 3.30476563 11.51625 3.30078125 12.8125 C3 16 3 16 1 18 C0.67 12.06 0.34 6.12 0 0 Z " fill="#E7EAF3" transform="translate(1597,727)"/>
<path d="M0 0 C0.99 0.33 1.98 0.66 3 1 C1.77056494 2.72785467 0.53995641 4.45489856 -0.69921875 6.17578125 C-1.69962784 7.57875736 -2.66918214 9.00377321 -3.625 10.4375 C-4.07875 10.953125 -4.5325 11.46875 -5 12 C-5.99 12 -6.98 12 -8 12 C-6.59023295 8.96147295 -4.91129772 6.4060405 -2.875 3.75 C-2.06675781 2.69039063 -2.06675781 2.69039063 -1.2421875 1.609375 C-0.83226562 1.07828125 -0.42234375 0.5471875 0 0 Z " fill="#2B385B" transform="translate(161,318)"/>
<path d="M0 0 C2.64 0 5.28 0 8 0 C8 1 8 2 8 3 C8.66 3.66 9.32 4.32 10 5 C8.741875 5.04125 7.48375 5.0825 6.1875 5.125 C5.47980469 5.14820313 4.77210938 5.17140625 4.04296875 5.1953125 C2 5 2 5 -1 3 C-0.67 2.01 -0.34 1.02 0 0 Z " fill="#F4F5F9" transform="translate(888,0)"/>
<path d="M0 0 C2.74277578 3.19990508 4.6302836 6.00499382 6 10 C5.01 10 4.02 10 3 10 C2.67 9.34 2.34 8.68 2 8 C0.02477154 6.95191959 -1.97481509 5.9479589 -4 5 C-3.34 4.67 -2.68 4.34 -2 4 C-1.67 3.01 -1.34 2.02 -1 1 C-0.67 0.67 -0.34 0.34 0 0 Z " fill="#E4E9EE" transform="translate(101,1190)"/>
<path d="M0 0 C0.33 0.66 0.66 1.32 1 2 C-1.56663598 8.05565676 -5.54024716 11.57427273 -11 15 C-11 12 -11 12 -9.1015625 9.84375 C-8.28429687 9.0703125 -7.46703125 8.296875 -6.625 7.5 C-4.04782096 5.04554377 -1.98069878 2.97104817 0 0 Z " fill="#3C4665" transform="translate(218,250)"/>
<path d="M0 0 C-1.4258086 3.45195767 -3.09746334 5.1014256 -6.125 7.25 C-7.21167969 8.03117187 -7.21167969 8.03117187 -8.3203125 8.828125 C-8.87460938 9.21484375 -9.42890625 9.6015625 -10 10 C-10 8.02 -10 6.04 -10 4 C-7.92446352 3.4465236 -6.15634036 3 -4 3 C-4 2.34 -4 1.68 -4 1 C-2 0 -2 0 0 0 Z " fill="#293759" transform="translate(1318,1408)"/>
<path d="M0 0 C1.65 0.33 3.3 0.66 5 1 C3.02 5.29 1.04 9.58 -1 14 C-1.33 14 -1.66 14 -2 14 C-2 12.02 -2 10.04 -2 8 C-1.34 8 -0.68 8 0 8 C0 5.36 0 2.72 0 0 Z " fill="#71DAB5" transform="translate(587,882)"/>
<path d="M0 0 C-1.38914475 4.29718953 -3.38031985 6.70687757 -6.625 9.8125 C-7.44226562 10.60269531 -8.25953125 11.39289063 -9.1015625 12.20703125 C-9.72804688 12.79871094 -10.35453125 13.39039063 -11 14 C-11.33 13.01 -11.66 12.02 -12 11 C-11.34 11 -10.68 11 -10 11 C-10 10.34 -10 9.68 -10 9 C-9.34 9 -8.68 9 -8 9 C-8 8.34 -8 7.68 -8 7 C-7.34 7 -6.68 7 -6 7 C-5.8453125 6.1028125 -5.8453125 6.1028125 -5.6875 5.1875 C-4.71993159 2.10887325 -3.39245825 0 0 0 Z " fill="#134259" transform="translate(1055,1040)"/>
<path d="M0 0 C0.33 0 0.66 0 1 0 C1.88229454 5.73491451 -0.49896975 8.76938812 -3.6875 13.2421875 C-4.120625 13.82226562 -4.55375 14.40234375 -5 15 C-5.66 14.67 -6.32 14.34 -7 14 C-4.69 9.38 -2.38 4.76 0 0 Z " fill="#73D9B6" transform="translate(532,858)"/>
<path d="M0 0 C2 3 2 3 1.625 5.5 C1.41875 6.325 1.2125 7.15 1 8 C1 8.99 1 9.98 1 11 C-0.98 11.33 -2.96 11.66 -5 12 C-3.68938409 7.76570244 -2.05643741 3.92592596 0 0 Z " fill="#6EDBB1" transform="translate(701,529)"/>
<path d="M0 0 C0.99 0.33 1.98 0.66 3 1 C-0.88672813 4.18005028 -4.89952133 7.10554447 -9 10 C-9.66 9.34 -10.32 8.68 -11 8 C-5.375 3 -5.375 3 -2 3 C-2 2.34 -2 1.68 -2 1 C-1.34 0.67 -0.68 0.34 0 0 Z " fill="#E2E8F1" transform="translate(343,140)"/>
<path d="M0 0 C2.55263088 2.274694 3.84144815 4.43202693 5.1875 7.5625 C5.53167969 8.34753906 5.87585938 9.13257813 6.23046875 9.94140625 C7 12 7 12 7 14 C4.26020496 12.99540849 3.20256499 12.40512998 1.875 9.75 C1.441875 8.38875 1.441875 8.38875 1 7 C0.62875 5.906875 0.2575 4.81375 -0.125 3.6875 C-0.41375 2.800625 -0.7025 1.91375 -1 1 C-0.67 0.67 -0.34 0.34 0 0 Z " fill="#E2E8F2" transform="translate(66,1121)"/>
<path d="M0 0 C2.27113803 0.14100857 4.54190725 0.28796755 6.8125 0.4375 C8.07707031 0.51871094 9.34164062 0.59992188 10.64453125 0.68359375 C14 1 14 1 17 2 C17 2.66 17 3.32 17 4 C17.66 4.33 18.32 4.66 19 5 C3.28571429 3.28571429 3.28571429 3.28571429 0 0 Z " fill="#6DD3C6" transform="translate(969,1121)"/>
<path d="M0 0 C-2.05824429 0.84378975 -4.12179786 1.67463622 -6.1875 2.5 C-7.33605469 2.9640625 -8.48460937 3.428125 -9.66796875 3.90625 C-12.71990077 4.90805652 -14.83115072 5.23870804 -18 5 C-17.67 4.01 -17.34 3.02 -17 2 C-16.22914062 1.86722656 -15.45828125 1.73445313 -14.6640625 1.59765625 C-13.66117188 1.42105469 -12.65828125 1.24445313 -11.625 1.0625 C-10.62726563 0.88847656 -9.62953125 0.71445313 -8.6015625 0.53515625 C-2.44061758 -0.73218527 -2.44061758 -0.73218527 0 0 Z " fill="#73DDD0" transform="translate(1056,1120)"/>
<path d="M0 0 C0.66 0 1.32 0 2 0 C6.40774487 9.41002278 6.40774487 9.41002278 7 14 C7.66 14 8.32 14 9 14 C8.67 14.99 8.34 15.98 8 17 C5.72195761 14.12071475 3.95965316 11.2169671 2.3125 7.9375 C1.87550781 7.08027344 1.43851563 6.22304688 0.98828125 5.33984375 C0 3 0 3 0 0 Z " fill="#74DCC8" transform="translate(988,844)"/>
<path d="M0 0 C3.63302686 3.26040872 5.4217723 5.14288733 6 10 C6.65146849 12.33762223 7.31526605 14.67190457 8 17 C5.36436698 14.64261563 3.89093341 12.21462679 2.3125 9.0625 C1.87550781 8.20785156 1.43851563 7.35320313 0.98828125 6.47265625 C0 4 0 4 0 0 Z " fill="#75E5CB" transform="translate(978,823)"/>
<path d="M0 0 C6.28260706 -0.23268915 11.88019467 0.59545452 18 2 C17.67 2.66 17.34 3.32 17 4 C10.99769998 4.48667297 5.68299011 2.69882978 0 1 C0 0.67 0 0.34 0 0 Z " fill="#144154" transform="translate(811,471)"/>
<path d="M0 0 C1 3 1 3 -0.43359375 6.35546875 C-1.09148807 7.6380304 -1.75989743 8.91524057 -2.4375 10.1875 C-2.77587891 10.84169922 -3.11425781 11.49589844 -3.46289062 12.16992188 C-4.29969098 13.78459299 -5.14869746 15.39292763 -6 17 C-7.45995282 12.62014153 -5.7957564 9.67993018 -3.875 5.625 C-3.58625 5.08875 -3.2975 4.5525 -3 4 C-2.34 4 -1.68 4 -1 4 C-0.67 2.68 -0.34 1.36 0 0 Z " fill="#144151" transform="translate(642,641)"/>
<path d="M0 0 C1.32 0.66 2.64 1.32 4 2 C3.01 2.495 3.01 2.495 2 3 C1.34 2.67 0.68 2.34 0 2 C-0.061875 2.7425 -0.12375 3.485 -0.1875 4.25 C-1.24560475 7.83127761 -3.03252236 8.84857871 -6 11 C-6.33 11.66 -6.66 12.32 -7 13 C-7.66 12.67 -8.32 12.34 -9 12 C-6.03 8.04 -3.06 4.08 0 0 Z " fill="#6FD9B2" transform="translate(715,509)"/>
<path d="M0 0 C0.66 0.33 1.32 0.66 2 1 C-1.465 8.425 -1.465 8.425 -5 16 C-6.2153947 11.13842122 -5.33980387 10.24631074 -3 6 C-2.62875 5.071875 -2.2575 4.14375 -1.875 3.1875 C-1 1 -1 1 0 0 Z " fill="#293759" transform="translate(1520,1144)"/>
<path d="M0 0 C0 0.66 0 1.32 0 2 C-2.05078125 2.22786458 -4.1015625 2.45572917 -6.15234375 2.68359375 C-8.01140229 2.81886614 -8.01140229 2.81886614 -9 4 C-10.99958364 4.04080783 -13.00045254 4.04254356 -15 4 C-11.02108054 -0.81658671 -5.84925005 -0.11469118 0 0 Z " fill="#123D55" transform="translate(688,1111)"/>
<path d="M0 0 C0.721875 0.144375 1.44375 0.28875 2.1875 0.4375 C3.5796875 0.7159375 3.5796875 0.7159375 5 1 C6.66666667 1.33333333 8.33333333 1.66666667 10 2 C10 2.33 10 2.66 10 3 C8.2508503 3.33776684 6.50063855 3.67003671 4.75 4 C3.28820312 4.2784375 3.28820312 4.2784375 1.796875 4.5625 C-1 5 -1 5 -5 5 C-5 4.34 -5 3.68 -5 3 C-3.02 3 -1.04 3 1 3 C0.67 2.01 0.34 1.02 0 0 Z " fill="#123B56" transform="translate(641,1050)"/>
<path d="M0 0 C0.66 0 1.32 0 2 0 C0.35433477 5.68502535 -2.29032784 10.76681636 -5 16 C-5.33 16 -5.66 16 -6 16 C-6 14.35 -6 12.7 -6 11 C-5.34 11 -4.68 11 -4 11 C-4 9.68 -4 8.36 -4 7 C-3.34 7 -2.68 7 -2 7 C-1.855625 6.030625 -1.71125 5.06125 -1.5625 4.0625 C-1 1 -1 1 0 0 Z " fill="#154254" transform="translate(497,922)"/>
<path d="M0 0 C3.46718781 2.31145854 3.64761017 3.19640359 5 7 C5.556875 8.19625 6.11375 9.3925 6.6875 10.625 C8 14 8 14 7 17 C5.82592979 14.73272667 4.66060261 12.46165376 3.5 10.1875 C3.16613281 9.54490234 2.83226562 8.90230469 2.48828125 8.24023438 C0.99760916 5.30452301 0 3.33873483 0 0 Z " fill="#77E0CC" transform="translate(1009,885)"/>
<path d="M0 0 C0.66 0.99 1.32 1.98 2 3 C1.67 3.99 1.34 4.98 1 6 C0.34 6 -0.32 6 -1 6 C-1.66 8.97 -2.32 11.94 -3 15 C-4.32 15.33 -5.64 15.66 -7 16 C-5.56835889 12.34061828 -4.01065704 8.76011932 -2.375 5.1875 C-1.92898438 4.21167969 -1.48296875 3.23585938 -1.0234375 2.23046875 C-0.51683594 1.12638672 -0.51683594 1.12638672 0 0 Z " fill="#6FD3B2" transform="translate(603,719)"/>
<path d="M0 0 C2 3 2 3 3 6 C2.401875 6.061875 1.80375 6.12375 1.1875 6.1875 C-1.86915486 7.32282895 -2.46634026 9.21152775 -4 12 C-4.99 12.495 -4.99 12.495 -6 13 C-4.58707905 8.1725201 -2.57025846 4.2837641 0 0 Z " fill="#1A4659" transform="translate(738,598)"/>
<path d="M0 0 C0.99 0 1.98 0 3 0 C1.63408831 3.54243452 0.09068516 6.92627929 -1.625 10.3125 C-2.07101562 11.19550781 -2.51703125 12.07851563 -2.9765625 12.98828125 C-3.31429687 13.65214844 -3.65203125 14.31601562 -4 15 C-5.04449911 11.86650268 -4.93423645 11.01031744 -4 8 C-3.34 8 -2.68 8 -2 8 C-1.7834375 6.576875 -1.7834375 6.576875 -1.5625 5.125 C-1 2 -1 2 0 0 Z " fill="#153F52" transform="translate(681,563)"/>
<path d="M0 0 C4.13937592 3.30015998 7.58662205 6.17324411 10 11 C9.01 11 8.02 11 7 11 C6.34 10.34 5.68 9.68 5 9 C5 8.01 5 7.02 5 6 C3.68 5.67 2.36 5.34 1 5 C0.67 3.35 0.34 1.7 0 0 Z " fill="#DEE5EF" transform="translate(200,1330)"/>
<path d="M0 0 C0.99 0.33 1.98 0.66 3 1 C3 1.66 3 2.32 3 3 C2.34 3 1.68 3 1 3 C0.67 3.99 0.34 4.98 0 6 C-0.99 6.495 -0.99 6.495 -2 7 C-2.99 8.485 -2.99 8.485 -4 10 C-4.66 9.67 -5.32 9.34 -6 9 C-4.47291037 5.56404834 -2.40072955 2.88087546 0 0 Z " fill="#143754" transform="translate(1098,1089)"/>
<path d="M0 0 C0.66 0.33 1.32 0.66 2 1 C-0.97 7.93 -0.97 7.93 -4 15 C-4.66 14.01 -5.32 13.02 -6 12 C-5.67 11.01 -5.34 10.02 -5 9 C-4.34 9 -3.68 9 -3 9 C-2.87625 8.2575 -2.7525 7.515 -2.625 6.75 C-2.04513299 4.19858515 -1.26291261 2.2732427 0 0 Z " fill="#212F52" transform="translate(1548,1079)"/>
<path d="M0 0 C-3.01148016 3.47478479 -5.50735835 4.97043629 -10 6 C-12.1875 5.54296875 -12.1875 5.54296875 -14 5 C-12.23628182 3.96692229 -10.46374967 2.94887951 -8.6875 1.9375 C-7.70136719 1.36902344 -6.71523437 0.80054688 -5.69921875 0.21484375 C-3 -1 -3 -1 0 0 Z " fill="#71D9CB" transform="translate(1044,1056)"/>
<path d="M0 0 C-3.00950123 1.61725534 -5.97103608 2.67582623 -9.25 3.625 C-10.14203125 3.88539063 -11.0340625 4.14578125 -11.953125 4.4140625 C-12.62859375 4.60742188 -13.3040625 4.80078125 -14 5 C-13.27734375 3.08203125 -13.27734375 3.08203125 -12 1 C-9.94140625 0.13671875 -9.94140625 0.13671875 -7.5625 -0.3125 C-6.78003906 -0.47363281 -5.99757813 -0.63476562 -5.19140625 -0.80078125 C-3 -1 -3 -1 0 0 Z " fill="#73DBB6" transform="translate(790,537)"/>
<path d="M0 0 C4.67105792 1.55701931 8.08705685 4.08447373 12 7 C9 8 9 8 6 7 C6 6.34 6 5.68 6 5 C4.02 4.34 2.04 3.68 0 3 C0 2.01 0 1.02 0 0 Z " fill="#E2E9F2" transform="translate(335,1452)"/>
<path d="M0 0 C2.65171248 2.37094293 4.1490052 4.83568087 5.75 8 C6.19859375 8.86625 6.6471875 9.7325 7.109375 10.625 C8 13 8 13 7 16 C6.02892522 14.2922478 5.05821106 12.58428891 4.08984375 10.875 C3.18963184 9.32624833 2.22750357 7.8136662 1.25 6.3125 C0 4 0 4 0 0 Z " fill="#74DECA" transform="translate(1000,867)"/>
<path d="M0 0 C0.33 0 0.66 0 1 0 C1.25 5.625 1.25 5.625 -1 9 C-1.66 9 -2.32 9 -3 9 C-3.66 10.32 -4.32 11.64 -5 13 C-5 9.51038791 -4.09620626 7.88519705 -2.5 4.8125 C-2.0359375 3.91144531 -1.571875 3.01039063 -1.09375 2.08203125 C-0.7328125 1.39496094 -0.371875 0.70789063 0 0 Z " fill="#70D6B3" transform="translate(580,765)"/>
<path d="M0 0 C2.31 0.66 4.62 1.32 7 2 C2.25 6.875 2.25 6.875 0 8 C-0.79953138 4.71303767 -1.09658936 3.28976808 0 0 Z " fill="#EAEEF1" transform="translate(308,161)"/>
<path d="M0 0 C2.475 0.99 2.475 0.99 5 2 C5 2.99 5 3.98 5 5 C5.99 5.33 6.98 5.66 8 6 C3.94393835 5.53199289 0.53411321 5.12046792 -3 3 C-2 2 -1 1 0 0 Z " fill="#283759" transform="translate(569,1562)"/>
<path d="M0 0 C1.98 0 3.96 0 6 0 C6.33 1.32 6.66 2.64 7 4 C8.65 4.33 10.3 4.66 12 5 C12 5.66 12 6.32 12 7 C10.56068883 6.54738642 9.12361001 6.08767021 7.6875 5.625 C6.88699219 5.36976562 6.08648437 5.11453125 5.26171875 4.8515625 C3 4 3 4 0 2 C0 1.34 0 0.68 0 0 Z " fill="#2E3B5A" transform="translate(479,1531)"/>
<path d="M0 0 C0.99 0.33 1.98 0.66 3 1 C2.01 4.3 1.02 7.6 0 11 C-0.33 11 -0.66 11 -1 11 C-1.33 7.7 -1.66 4.4 -2 1 C-1.34 0.67 -0.68 0.34 0 0 Z " fill="#2B375C" transform="translate(1563,1031)"/>
<path d="M0 0 C0.99 0 1.98 0 3 0 C3.65134925 1.56020867 4.29582964 3.12328579 4.9375 4.6875 C5.47697266 5.99267578 5.47697266 5.99267578 6.02734375 7.32421875 C6.9570312 9.88179265 7.54162625 12.3221323 8 15 C5.84821844 12.23612808 4.01629579 9.43466931 2.3125 6.375 C1.87550781 5.59898437 1.43851563 4.82296875 0.98828125 4.0234375 C0 2 0 2 0 0 Z " fill="#75DDBD" transform="translate(867,611)"/>
<path d="M0 0 C0.66 0 1.32 0 2 0 C2 0.66 2 1.32 2 2 C2.66 2 3.32 2 4 2 C4 2.66 4 3.32 4 4 C3.01 4.33 2.02 4.66 1 5 C0.34 4.67 -0.32 4.34 -1 4 C-1.33 6.31 -1.66 8.62 -2 11 C-2.66 10.67 -3.32 10.34 -4 10 C-3.43697042 6.05879291 -2.3208055 3.2491277 0 0 Z " fill="#11354F" transform="translate(753,570)"/>
<path d="M0 0 C0 4.13122742 -1.4277594 5.81854452 -4 9 C-7.25 10.375 -7.25 10.375 -10 11 C-6.79239749 7.19364503 -3.59253891 3.45436433 0 0 Z " fill="#3A4563" transform="translate(247,221)"/>
<path d="M0 0 C3.63 0 7.26 0 11 0 C10.01 1.485 10.01 1.485 9 3 C7.0546875 3.29296875 7.0546875 3.29296875 4.875 3.1875 C3.59625 3.125625 2.3175 3.06375 1 3 C0.67 2.01 0.34 1.02 0 0 Z " fill="#F5F7F7" transform="translate(870,0)"/>
<path d="M0 0 C-1.15173355 2.46800047 -2.04783565 4.04783565 -4 6 C-6.5 6.75 -6.5 6.75 -9 7 C-9.66 6.34 -10.32 5.68 -11 5 C-9.54462432 4.16151196 -8.08559627 3.32936066 -6.625 2.5 C-5.81289062 2.0359375 -5.00078125 1.571875 -4.1640625 1.09375 C-2 0 -2 0 0 0 Z " fill="#DCE2EC" transform="translate(1206,1490)"/>
<path d="M0 0 C0.99 0.99 1.98 1.98 3 3 C2 6 2 6 -1 8 C-1.66 8.99 -2.32 9.98 -3 11 C-3 6.32674845 -1.92757363 4.17640953 0 0 Z " fill="#72E1B6" transform="translate(569,786)"/>
<path d="M0 0 C0 3 0 3 -1.53125 4.60546875 C-2.1809375 5.12753906 -2.830625 5.64960938 -3.5 6.1875 C-4.1496875 6.71730469 -4.799375 7.24710937 -5.46875 7.79296875 C-5.9740625 8.19128906 -6.479375 8.58960938 -7 9 C-7.66 8.67 -8.32 8.34 -9 8 C-8.07038578 6.84775972 -7.1309875 5.70340824 -6.1875 4.5625 C-5.66542969 3.92441406 -5.14335937 3.28632813 -4.60546875 2.62890625 C-3 1 -3 1 0 0 Z " fill="#2B385A" transform="translate(204,268)"/>
<path d="M0 0 C0.66 0.33 1.32 0.66 2 1 C1.38125 1.2475 0.7625 1.495 0.125 1.75 C-2.38710296 3.22770762 -2.76107344 4.43955177 -4 7 C-7 8 -7 8 -10 7 C-6.7 4.69 -3.4 2.38 0 0 Z " fill="#DADEEA" transform="translate(1239,1468)"/>
<path d="M0 0 C0 3.51716303 -0.82445585 4.37121748 -3 7 C-2.34 7.66 -1.68 8.32 -1 9 C-1.66 9 -2.32 9 -3 9 C-3 9.66 -3 10.32 -3 11 C-3.66 11 -4.32 11 -5 11 C-5 10.34 -5 9.68 -5 9 C-5.66 8.67 -6.32 8.34 -7 8 C-4.69 5.36 -2.38 2.72 0 0 Z " fill="#E1E7F0" transform="translate(1399,1330)"/>
<path d="M0 0 C0.5625 1.9375 0.5625 1.9375 1 4 C0.67 4.33 0.34 4.66 0 5 C-0.03165882 7.52366033 0.06824712 10.03270105 0.16015625 12.5546875 C0 15 0 15 -2 18 C-2.05397335 15.5622037 -2.09365616 13.12560315 -2.125 10.6875 C-2.14175781 9.99720703 -2.15851562 9.30691406 -2.17578125 8.59570312 C-2.21217794 4.82864604 -2.14378864 3.21568296 0 0 Z " fill="#0E344F" transform="translate(536,994)"/>
<path d="M0 0 C1.13643966 3.40931897 0.86747764 4.00335456 -0.4375 7.1875 C-0.72496094 7.90292969 -1.01242187 8.61835937 -1.30859375 9.35546875 C-1.53675781 9.89816406 -1.76492188 10.44085937 -2 11 C-2.66 11 -3.32 11 -4 11 C-4 11.66 -4 12.32 -4 13 C-4.66 12.67 -5.32 12.34 -6 12 C-4.02 8.04 -2.04 4.08 0 0 Z " fill="#104051" transform="translate(629,810)"/>
<path d="M0 0 C2.86453858 3.41016497 4.34703566 6.90694544 6 11 C5.34 11 4.68 11 4 11 C4 10.34 4 9.68 4 9 C2.68 9.33 1.36 9.66 0 10 C0.33 7.69 0.66 5.38 1 3 C0.34 2.67 -0.32 2.34 -1 2 C-0.67 1.34 -0.34 0.68 0 0 Z " fill="#72DABB" transform="translate(946,626)"/>
<path d="M0 0 C2.86453858 3.41016497 4.34703566 6.90694544 6 11 C5.34 11.66 4.68 12.32 4 13 C3.34 12.67 2.68 12.34 2 12 C2 9.69 2 7.38 2 5 C1.34 5 0.68 5 0 5 C0 3.35 0 1.7 0 0 Z " fill="#6ED7B8" transform="translate(912,560)"/>
<path d="M0 0 C0.66 0.99 1.32 1.98 2 3 C1.01 4.98 0.02 6.96 -1 9 C-1.99 9 -2.98 9 -4 9 C-3.46930939 5.17902761 -2.50298434 2.93828597 0 0 Z " fill="#27365A" transform="translate(139,349)"/>
<path d="M0 0 C3.94139078 1.66751148 6.7892812 4.22710649 10 7 C9.34 7.66 8.68 8.32 8 9 C8 8.34 8 7.68 8 7 C6.68 7 5.36 7 4 7 C3.67 6.01 3.34 5.02 3 4 C2.01 3.67 1.02 3.34 0 3 C0 2.01 0 1.02 0 0 Z " fill="#2A3757" transform="translate(1308,183)"/>
<path d="M0 0 C-0.33 1.65 -0.66 3.3 -1 5 C-1.99 5 -2.98 5 -4 5 C-4 4.34 -4 3.68 -4 3 C-5.98 3.33 -7.96 3.66 -10 4 C-7.02096266 1.02096266 -4.19714671 0 0 0 Z " fill="#28365A" transform="translate(502,58)"/>
<path d="M0 0 C0.33 0.66 0.66 1.32 1 2 C-6.0728972 5.69719626 -6.0728972 5.69719626 -9 6 C-9.99 5.34 -10.98 4.68 -12 4 C-8.04 2.68 -4.08 1.36 0 0 Z " fill="#2E3A5D" transform="translate(526,48)"/>
<path d="M0 0 C5.94 0.99 5.94 0.99 12 2 C12 2.33 12 2.66 12 3 C7.38 3 2.76 3 -2 3 C-1.34 2.01 -0.68 1.02 0 0 Z " fill="#2C3A5A" transform="translate(834,1596)"/>
<path d="M0 0 C0 0.66 0 1.32 0 2 C-0.66 2 -1.32 2 -2 2 C-2.33 2.99 -2.66 3.98 -3 5 C-5.86724686 4.42655063 -6.8614515 4.1385485 -9 2 C-5.62902617 0.50178941 -3.79557881 0 0 0 Z " fill="#DFE5EA" transform="translate(1094,1545)"/>
<path d="M0 0 C4.43458973 1.3937282 6.87378374 3.60582235 10 7 C7 7 7 7 4 6 C4 5.34 4 4.68 4 4 C2.68 3.34 1.36 2.68 0 2 C0 1.34 0 0.68 0 0 Z " fill="#E2E9F2" transform="translate(308,1432)"/>
<path d="M0 0 C3.94139078 1.66751148 6.7892812 4.22710649 10 7 C9.01 7.33 8.02 7.66 7 8 C6.67 7.01 6.34 6.02 6 5 C4.35 4.67 2.7 4.34 1 4 C0.67 2.68 0.34 1.36 0 0 Z " fill="#E2EAF3" transform="translate(297,1423)"/>
<path d="M0 0 C3.28788824 3.11016455 5.83735988 6.01618925 8 10 C7.01 10.99 6.02 11.98 5 13 C4.731875 12.113125 4.46375 11.22625 4.1875 10.3125 C3.0819322 7.2285477 1.69898404 4.7801557 0 2 C0 1.34 0 0.68 0 0 Z " fill="#E0E7F0" transform="translate(168,1291)"/>
<path d="M0 0 C2.58772586 3.8815888 1.87719799 5.53426477 1 10 C0.67 10.99 0.34 11.98 0 13 C-0.66 13 -1.32 13 -2 13 C-1.34 8.71 -0.68 4.42 0 0 Z " fill="#184D61" transform="translate(1129,1030)"/>
<path d="M0 0 C0.99 0.33 1.98 0.66 3 1 C6 7.11111111 6 7.11111111 6 10 C6.66 10 7.32 10 8 10 C7.67 10.99 7.34 11.98 7 13 C3.67006966 9.17058011 1.94675475 4.62477778 0 0 Z " fill="#74D9CB" transform="translate(1052,972)"/>
<path d="M0 0 C3.29078593 2.79716804 5.06305458 6.19528578 7 10 C6.67 10.66 6.34 11.32 6 12 C1.6409923 8.51279384 1.05447817 5.27239085 0 0 Z " fill="#71DBCB" transform="translate(1111,947)"/>
<path d="M0 0 C1.0326802 2.78823655 1.04509293 3.8677274 0.0625 6.75 C-0.288125 7.4925 -0.63875 8.235 -1 9 C-1.66 9 -2.32 9 -3 9 C-3 9.66 -3 10.32 -3 11 C-3.66 11 -4.32 11 -5 11 C-3.55049545 7.2089881 -1.84827434 3.6125362 0 0 Z " fill="#71D2B3" transform="translate(564,796)"/>
<path d="M0 0 C0.61875 0.78375 1.2375 1.5675 1.875 2.375 C3.89858661 4.96837647 3.89858661 4.96837647 6 7 C6 8.32 6 9.64 6 11 C3 10 3 10 1.3125 7.1875 C0 4 0 4 0 0 Z " fill="#0E3450" transform="translate(958,645)"/>
<path d="M0 0 C0.33 0.99 0.66 1.98 1 3 C2.65 3.33 4.3 3.66 6 4 C3.58959839 5.53690745 2.49917715 6.09752136 -0.359375 5.5390625 C-1.14828125 5.23742188 -1.9371875 4.93578125 -2.75 4.625 C-3.94882812 4.18027344 -3.94882812 4.18027344 -5.171875 3.7265625 C-5.77515625 3.48679687 -6.3784375 3.24703125 -7 3 C-7 2.67 -7 2.34 -7 2 C-6.21625 2.04125 -5.4325 2.0825 -4.625 2.125 C-1.83883881 2.28728734 -1.83883881 2.28728734 0 0 Z " fill="#343F62" transform="translate(546,1554)"/>
<path d="M0 0 C0.66 0 1.32 0 2 0 C1.43518386 3.95371299 0.28003407 6.71675094 -2 10 C-2.99 10.495 -2.99 10.495 -4 11 C-3.52269162 9.5410574 -3.04308958 8.08286504 -2.5625 6.625 C-2.29566406 5.81289062 -2.02882813 5.00078125 -1.75390625 4.1640625 C-1 2 -1 2 0 0 Z " fill="#D4DBE7" transform="translate(1531,1124)"/>
<path d="M0 0 C0.99 0.33 1.98 0.66 3 1 C1.02 3.31 -0.96 5.62 -3 8 C-3.66 7.01 -4.32 6.02 -5 5 C-3.625 3.5 -3.625 3.5 -2 2 C-1.34 2 -0.68 2 0 2 C0 1.34 0 0.68 0 0 Z " fill="#6CD3C6" transform="translate(1094,1090)"/>
<path d="M0 0 C1.670625 0.061875 1.670625 0.061875 3.375 0.125 C0.7151439 3.56716672 -2.52788286 4.12004674 -6.625 5.125 C-5.18396028 0.80188085 -4.63302201 0.15975938 0 0 Z " fill="#153F59" transform="translate(1029.625,1058.875)"/>
<path d="M0 0 C3.84375 1.6953125 3.84375 1.6953125 5.25 4.4375 C6 7 6 7 6 10 C6.66 10 7.32 10 8 10 C7.67 10.99 7.34 11.98 7 13 C3.67006966 9.17058011 1.94675475 4.62477778 0 0 Z " fill="#104058" transform="translate(1103,929)"/>
<path d="M0 0 C4 2 4 2 5.8125 5.375 C7 9 7 9 6 13 C4.02 8.71 2.04 4.42 0 0 Z " fill="#174558" transform="translate(934,602)"/>
<path d="M0 0 C0.56203125 0.22558594 1.1240625 0.45117188 1.703125 0.68359375 C1.13722656 0.94914063 0.57132813 1.2146875 -0.01171875 1.48828125 C-0.74519531 1.84148438 -1.47867188 2.1946875 -2.234375 2.55859375 C-3.33072266 3.08066406 -3.33072266 3.08066406 -4.44921875 3.61328125 C-6.46019959 4.55209145 -6.46019959 4.55209145 -7.296875 6.68359375 C-8.616875 6.35359375 -9.936875 6.02359375 -11.296875 5.68359375 C-9.89135201 4.64747104 -8.47195806 3.6301445 -7.046875 2.62109375 C-6.25796875 2.05261719 -5.4690625 1.48414063 -4.65625 0.8984375 C-2.296875 -0.31640625 -2.296875 -0.31640625 0 0 Z " fill="#134250" transform="translate(780.296875,541.31640625)"/>
<path d="M0 0 C0.33 0 0.66 0 1 0 C1.17942163 3.94727588 1.09350689 6.5980513 -1 10 C-0.34 10.33 0.32 10.66 1 11 C0.01 11.99 -0.98 12.98 -2 14 C-3.81975482 8.87160006 -1.8599099 4.82315618 0 0 Z " fill="#2E3A5F" transform="translate(46,530)"/>
<path d="M0 0 C0 0.99 0 1.98 0 3 C-0.99 3.33 -1.98 3.66 -3 4 C-3.33 4.99 -3.66 5.98 -4 7 C-5.65 7 -7.3 7 -9 7 C-6.24479785 4.04070881 -3.53372712 1.96318174 0 0 Z " fill="#33405F" transform="translate(336,148)"/>
<path d="M0 0 C5.75 1.875 5.75 1.875 8 3 C7.67 4.32 7.34 5.64 7 7 C5.83040013 6.02433888 4.66438823 5.044375 3.5 4.0625 C2.8503125 3.51722656 2.200625 2.97195313 1.53125 2.41015625 C1.0259375 1.94480469 0.520625 1.47945312 0 1 C0 0.67 0 0.34 0 0 Z " fill="#2E3B5B" transform="translate(237,1368)"/>
<path d="M0 0 C0.91058531 3.07322544 1.08886184 5.80097361 1 9 C0.34 9 -0.32 9 -1 9 C-1 9.66 -1 10.32 -1 11 C-1.99 11.33 -2.98 11.66 -4 12 C-2.66666667 8 -1.33333333 4 0 0 Z " fill="#D5DDE8" transform="translate(1541,1100)"/>
<path d="M0 0 C0.66 0 1.32 0 2 0 C1.32829194 3.8063457 0.27253436 7.35206816 -1 11 C-1.66 11 -2.32 11 -3 11 C-2.32829194 7.1936543 -1.27253436 3.64793184 0 0 Z " fill="#D1D7E4" transform="translate(1551,1074)"/>
<path d="M0 0 C1.77155654 0.11429397 3.54226229 0.24183037 5.3125 0.375 C6.79169922 0.47941406 6.79169922 0.47941406 8.30078125 0.5859375 C11 1 11 1 14 3 C10.45332822 4.25127906 8.27746562 3.72285053 4.75 2.5625 C3.85796875 2.27503906 2.9659375 1.98757813 2.046875 1.69140625 C1.37140625 1.46324219 0.6959375 1.23507812 0 1 C0 0.67 0 0.34 0 0 Z " fill="#75E2CF" transform="translate(965,1057)"/>
<path d="M0 0 C2.4375 0.8125 2.4375 0.8125 5 2 C6.06546953 5.1964086 6.07427838 7.65747276 6 11 C3.84733158 8.84733158 3.06525538 7.15226256 1.875 4.375 C1.52179688 3.55773437 1.16859375 2.74046875 0.8046875 1.8984375 C0.53914063 1.27195312 0.27359375 0.64546875 0 0 Z " fill="#17405B" transform="translate(1094,912)"/>
<path d="M0 0 C0.66 0 1.32 0 2 0 C2.67154933 1.28913487 3.33708859 2.58140204 4 3.875 C4.37125 4.59429688 4.7425 5.31359375 5.125 6.0546875 C6 8 6 8 6 10 C4.68 9.34 3.36 8.68 2 8 C2 6.35 2 4.7 2 3 C1.34 3 0.68 3 0 3 C0 2.01 0 1.02 0 0 Z " fill="#19475C" transform="translate(1011,894)"/>
<path d="M0 0 C0.99 1.32 1.98 2.64 3 4 C1.35 5.65 -0.3 7.3 -2 9 C-3 6 -3 6 -1.5625 2.8125 C-1.046875 1.884375 -0.53125 0.95625 0 0 Z " fill="#70DBB2" transform="translate(573,778)"/>
<path d="M0 0 C2.74792483 3.40219265 6 7.48464588 6 12 C3 11 3 11 1.3125 7.6875 C0 4 0 4 0 0 Z " fill="#194C5D" transform="translate(946,764)"/>
<path d="M0 0 C1.32 0 2.64 0 4 0 C3.34 1.98 2.68 3.96 2 6 C1.01 6 0.02 6 -1 6 C-0.67 4.02 -0.34 2.04 0 0 Z " fill="#73DDB8" transform="translate(748,571)"/>
<path d="M0 0 C0.99 0 1.98 0 3 0 C3.33 1.65 3.66 3.3 4 5 C3.34 5 2.68 5 2 5 C1.67 5.66 1.34 6.32 1 7 C0.34 7 -0.32 7 -1 7 C-1.04254356 5.00045254 -1.04080783 2.99958364 -1 1 C-0.67 0.67 -0.34 0.34 0 0 Z " fill="#70E5B4" transform="translate(906,552)"/>
<path d="M0 0 C0.99 0.33 1.98 0.66 3 1 C0.525 5.455 0.525 5.455 -2 10 C-3.07529543 5.69881829 -2.84830433 4.79929223 -1 1 C-0.67 0.67 -0.34 0.34 0 0 Z " fill="#E1E8F1" transform="translate(108,393)"/>
<path d="M0 0 C-0.50522222 4.37859255 -3.17827222 6.81651224 -6 10 C-7 7 -7 7 -6.25 5 C-3.125 0 -3.125 0 0 0 Z " fill="#2A3857" transform="translate(1413,1312)"/>
<path d="M0 0 C2.97 0 5.94 0 9 0 C8.01 1.485 8.01 1.485 7 3 C5.0546875 3.29296875 5.0546875 3.29296875 2.875 3.1875 C1.59625 3.125625 0.3175 3.06375 -1 3 C-0.67 2.01 -0.34 1.02 0 0 Z " fill="#76E8CE" transform="translate(901,1106)"/>
<path d="M0 0 C3.375 0.6875 3.375 0.6875 7 2 C8.4375 4.625 8.4375 4.625 9 7 C2.25 3.375 2.25 3.375 0 0 Z " fill="#154155" transform="translate(551,1050)"/>
<path d="M0 0 C0.66 0.33 1.32 0.66 2 1 C1.25 6.75 1.25 6.75 -1 9 C-1.625 5.625 -1.625 5.625 -2 2 C-1.34 1.34 -0.68 0.68 0 0 Z " fill="#73EFD1" transform="translate(1124,1038)"/>
<path d="M0 0 C2 3 2 3 1.7578125 5.26171875 C1.54898437 6.06222656 1.34015625 6.86273437 1.125 7.6875 C0.92132812 8.49574219 0.71765625 9.30398438 0.5078125 10.13671875 C0.25644531 11.05904297 0.25644531 11.05904297 0 12 C-0.66 12 -1.32 12 -2 12 C-1.34 8.04 -0.68 4.08 0 0 Z " fill="#CDD3E1" transform="translate(1579,980)"/>
<path d="M0 0 C0.33 0 0.66 0 1 0 C1.36444983 4.25191465 0.56111503 6.58517997 -2 10 C-2.99 10.33 -3.98 10.66 -5 11 C-3.55049545 7.2089881 -1.84827434 3.6125362 0 0 Z " fill="#74DCB7" transform="translate(505,911)"/>
<path d="M0 0 C0.99 0 1.98 0 3 0 C3.99 2.97 4.98 5.94 6 9 C5.01 9.495 5.01 9.495 4 10 C3.32845067 8.71086513 2.66291141 7.41859796 2 6.125 C1.62875 5.40570312 1.2575 4.68640625 0.875 3.9453125 C0 2 0 2 0 0 Z " fill="#153E52" transform="translate(1010,748)"/>
<path d="M0 0 C0.66 0.66 1.32 1.32 2 2 C2.66 1.67 3.32 1.34 4 1 C2.84826645 3.46800047 1.95216435 5.04783565 0 7 C-0.99 6.67 -1.98 6.34 -3 6 C-2.01 4.02 -1.02 2.04 0 0 Z " fill="#71DFB4" transform="translate(624,679)"/>
<path d="M0 0 C0.66 0.66 1.32 1.32 2 2 C0.35 4.97 -1.3 7.94 -3 11 C-4 7 -4 7 -3 4 C-2.34 4 -1.68 4 -1 4 C-0.67 2.68 -0.34 1.36 0 0 Z " fill="#144050" transform="translate(655,615)"/>
<path d="M0 0 C-2.22825644 2.22825644 -3.65761628 2.69239369 -6.625 3.625 C-7.44226562 3.88539062 -8.25953125 4.14578125 -9.1015625 4.4140625 C-9.72804688 4.60742188 -10.35453125 4.80078125 -11 5 C-10 2 -10 2 -7.75 0.8125 C-5.00208853 0.00061706 -2.84552111 -0.16260121 0 0 Z " fill="#374263" transform="translate(1085,1547)"/>
<path d="M0 0 C0 0.66 0 1.32 0 2 C-1.75 3.2890625 -1.75 3.2890625 -4 4.625 C-4.7425 5.07101562 -5.485 5.51703125 -6.25 5.9765625 C-6.8275 6.31429688 -7.405 6.65203125 -8 7 C-8 6.01 -8 5.02 -8 4 C-3.77142857 0 -3.77142857 0 0 0 Z " fill="#303D5D" transform="translate(1273,1444)"/>
<path d="M0 0 C0.33 0 0.66 0 1 0 C1 2.31 1 4.62 1 7 C-0.65 7 -2.3 7 -4 7 C-2.79618552 4.50638429 -1.54571278 2.31856917 0 0 Z " fill="#DDE3EB" transform="translate(1434,1287)"/>
<path d="M0 0 C1.258125 -0.020625 2.51625 -0.04125 3.8125 -0.0625 C4.52019531 -0.07410156 5.22789062 -0.08570313 5.95703125 -0.09765625 C8 0 8 0 11 1 C11 1.66 11 2.32 11 3 C9.54077307 2.88590407 8.08259402 2.75834456 6.625 2.625 C5.40683594 2.52058594 5.40683594 2.52058594 4.1640625 2.4140625 C2 2 2 2 0 0 Z " fill="#1F5265" transform="translate(963,1055)"/>
<path d="M0 0 C1.0326802 2.78823655 1.04509293 3.8677274 0.0625 6.75 C-0.288125 7.4925 -0.63875 8.235 -1 9 C-1.66 9 -2.32 9 -3 9 C-3 9.66 -3 10.32 -3 11 C-3.66 11 -4.32 11 -5 11 C-3.55049545 7.2089881 -1.84827434 3.6125362 0 0 Z " fill="#70D8B5" transform="translate(490,940)"/>
<path d="M0 0 C1.32 0.66 2.64 1.32 4 2 C2.68 3.65 1.36 5.3 0 7 C-0.99 6.67 -1.98 6.34 -3 6 C-2.01 4.02 -1.02 2.04 0 0 Z " fill="#6FD9B0" transform="translate(520,881)"/>
<path d="M0 0 C0.66 0.99 1.32 1.98 2 3 C1.34 4.32 0.68 5.64 0 7 C-1.32 7 -2.64 7 -4 7 C-4 6.34 -4 5.68 -4 5 C-3.34 5 -2.68 5 -2 5 C-1.34 3.35 -0.68 1.7 0 0 Z " fill="#6DF2AF" transform="translate(581,769)"/>
<path d="M0 0 C1.921875 0.7109375 1.921875 0.7109375 4 2 C4.828125 4.1640625 4.828125 4.1640625 5.25 6.625 C5.39953125 7.44226563 5.5490625 8.25953125 5.703125 9.1015625 C5.80109375 9.72804688 5.8990625 10.35453125 6 11 C3.13546142 7.58983503 1.65296434 4.09305456 0 0 Z " fill="#74D8C1" transform="translate(939,750)"/>
<path d="M0 0 C0.33 0 0.66 0 1 0 C1.20125603 3.62260852 0.92410596 5.90005152 -1 9 C-1.66 9.66 -2.32 10.32 -3 11 C-4 8 -4 8 -3.22265625 5.95703125 C-2.83980469 5.24933594 -2.45695313 4.54164063 -2.0625 3.8125 C-1.68222656 3.09707031 -1.30195312 2.38164063 -0.91015625 1.64453125 C-0.60980469 1.10183594 -0.30945313 0.55914063 0 0 Z " fill="#154054" transform="translate(668,734)"/>
<path d="M0 0 C0.33 0 0.66 0 1 0 C0.38461538 6.52307692 0.38461538 6.52307692 -1.5625 8.9375 C-2.036875 9.288125 -2.51125 9.63875 -3 10 C-2.67 7.36 -2.34 4.72 -2 2 C-1.34 2 -0.68 2 0 2 C0 1.34 0 0.68 0 0 Z " fill="#13374D" transform="translate(605,711)"/>
<path d="M0 0 C0.99 0 1.98 0 3 0 C1.7508258 3.45925163 0.32472205 6.14693203 -2 9 C-1.125 1.125 -1.125 1.125 0 0 Z " fill="#75DCB8" transform="translate(757,556)"/>
<path d="M0 0 C3.65316671 1.24976756 4.78065836 1.67098753 7 5 C4.37886292 5 2.49064888 4.68707555 0 4 C0 2.68 0 1.36 0 0 Z " fill="#71DBB5" transform="translate(859,490)"/>
<path d="M0 0 C-0.33 0.78375 -0.66 1.5675 -1 2.375 C-2.11866511 4.84332497 -2.11866511 4.84332497 -2 7 C-2.99 7.33 -3.98 7.66 -5 8 C-6.03348696 4.89953913 -6.17755913 3.94389782 -5 1 C-2 0 -2 0 0 0 Z " fill="#6FE5B0" transform="translate(762,478)"/>
<path d="M0 0 C5 6.59090909 5 6.59090909 5 10 C3.68 9.34 2.36 8.68 1 8 C1.33 7.01 1.66 6.02 2 5 C1.34 5 0.68 5 0 5 C0 3.35 0 1.7 0 0 Z " fill="#2E3B5E" transform="translate(1513,438)"/>
<path d="M0 0 C1.32 1.32 2.64 2.64 4 4 C2.25 7.875 2.25 7.875 0 9 C0 6.03 0 3.06 0 0 Z " fill="#25345C" transform="translate(1459,347)"/>
<path d="M0 0 C2 2 2 2 2 5 C0.02 5.99 -1.96 6.98 -4 8 C-2.87548273 5.0280615 -1.77706209 2.66559313 0 0 Z " fill="#DDE2EA" transform="translate(1481,1219)"/>
<path d="M0 0 C0.99 0.33 1.98 0.66 3 1 C2.67 1.66 2.34 2.32 2 3 C2.66 3 3.32 3 4 3 C4.66 4.32 5.32 5.64 6 7 C5.01 8.485 5.01 8.485 4 10 C3.32845067 8.71086513 2.66291141 7.41859796 2 6.125 C1.62875 5.40570312 1.2575 4.68640625 0.875 3.9453125 C0 2 0 2 0 0 Z " fill="#2E3A5C" transform="translate(89,1166)"/>
<path d="M0 0 C0.66 0 1.32 0 2 0 C2.70226141 1.24176695 3.38629109 2.49385599 4.0625 3.75 C4.44535156 4.44609375 4.82820313 5.1421875 5.22265625 5.859375 C6.1312406 8.36140628 5.88336837 9.5332355 5 12 C4.16180842 10.37750059 3.3295884 8.75191503 2.5 7.125 C2.0359375 6.22007813 1.571875 5.31515625 1.09375 4.3828125 C0 2 0 2 0 0 Z " fill="#76D5BC" transform="translate(479,1056)"/>
<path d="M0 0 C3.96 0 7.92 0 12 0 C12.33 0.99 12.66 1.98 13 3 C8.71 2.34 4.42 1.68 0 1 C0 0.67 0 0.34 0 0 Z " fill="#154157" transform="translate(931,1049)"/>
<path d="M0 0 C4.12671321 8.21860184 4.12671321 8.21860184 3.625 11.3125 C3.41875 11.869375 3.2125 12.42625 3 13 C1.32889958 10.03821227 0.67317248 7.62928808 0.375 4.25 C0.30023438 3.45078125 0.22546875 2.6515625 0.1484375 1.828125 C0.09945313 1.22484375 0.05046875 0.6215625 0 0 Z " fill="#7BDFBE" transform="translate(470,1025)"/>
<path d="M0 0 C0.66 0 1.32 0 2 0 C3.625 2.75 3.625 2.75 5 6 C4.1875 8.375 4.1875 8.375 3 10 C3 8.35 3 6.7 3 5 C2.01 4.67 1.02 4.34 0 4 C0 2.68 0 1.36 0 0 Z " fill="#184056" transform="translate(985,843)"/>
<path d="M0 0 C0.3449145 1.33038449 0.67516582 2.66457061 1 4 C1.2475 4.845625 1.495 5.69125 1.75 6.5625 C2 9 2 9 0.5625 10.8125 C0.046875 11.204375 -0.46875 11.59625 -1 12 C-2.42857143 3.42857143 -2.42857143 3.42857143 0 0 Z " fill="#1B3A5C" transform="translate(677,716)"/>
<path d="M0 0 C0.66 0 1.32 0 2 0 C2 0.66 2 1.32 2 2 C2.66 2 3.32 2 4 2 C4 2.66 4 3.32 4 4 C4.99 4.33 5.98 4.66 7 5 C6.01 5.495 6.01 5.495 5 6 C4.67 6.99 4.34 7.98 4 9 C2.68 6.03 1.36 3.06 0 0 Z " fill="#74DFC4" transform="translate(911,696)"/>
<path d="M0 0 C0.99 0 1.98 0 3 0 C2.67 3.63 2.34 7.26 2 11 C-0.10814567 6.78370866 -0.17700355 4.60209225 0 0 Z " fill="#DADFEB" transform="translate(4,695)"/>
<path d="M0 0 C3.20148213 2.13432142 3.52206739 2.68419896 4.6875 6.125 C4.93886719 6.84945312 5.19023438 7.57390625 5.44921875 8.3203125 C5.72185547 9.15175781 5.72185547 9.15175781 6 10 C5.01 9.67 4.02 9.34 3 9 C0 2.88888889 0 2.88888889 0 0 Z " fill="#74DBBF" transform="translate(936,608)"/>
<path d="M0 0 C2.1519437 3.22791555 2.20086443 4.28400809 2 8 C1.34 8 0.68 8 0 8 C-0.66 5.69 -1.32 3.38 -2 1 C-1.34 0.67 -0.68 0.34 0 0 Z " fill="#E9EDF7" transform="translate(1539,486)"/>
<path d="M0 0 C3.68754757 0.49831724 5.60490662 1.10067643 8 4 C7.67 4.99 7.34 5.98 7 7 C5.83040013 6.02433888 4.66438823 5.044375 3.5 4.0625 C2.8503125 3.51722656 2.200625 2.97195312 1.53125 2.41015625 C1.0259375 1.94480469 0.520625 1.47945312 0 1 C0 0.67 0 0.34 0 0 Z " fill="#E1E7F2" transform="translate(1294,170)"/>
<path d="M0 0 C0 0.66 0 1.32 0 2 C-2.31 2.33 -4.62 2.66 -7 3 C-7.33 2.34 -7.66 1.68 -8 1 C-3.375 -1.125 -3.375 -1.125 0 0 Z " fill="#ECEFF7" transform="translate(497,58)"/>
<path d="M0 0 C2.64 0 5.28 0 8 0 C8.33 0.99 8.66 1.98 9 3 C7.3125 3.75 7.3125 3.75 5 4 C2.25 2.0625 2.25 2.0625 0 0 Z " fill="#2D3A5B" transform="translate(382,1482)"/>
<path d="M0 0 C0 0.66 0 1.32 0 2 C-0.99 2.33 -1.98 2.66 -3 3 C-3.99 4.485 -3.99 4.485 -5 6 C-6.32 5.67 -7.64 5.34 -9 5 C-2.87096774 0 -2.87096774 0 0 0 Z " fill="#164059" transform="translate(1074,1111)"/>
<path d="M0 0 C0.33 0 0.66 0 1 0 C1.99 3.96 2.98 7.92 4 12 C0 8 0 8 -0.390625 5.859375 C-0.26041667 3.90625 -0.13020833 1.953125 0 0 Z " fill="#1D565E" transform="translate(472,1038)"/>
<path d="M0 0 C0.66 0 1.32 0 2 0 C1.8125 2.375 1.8125 2.375 1 5 C-1.5625 6.3125 -1.5625 6.3125 -4 7 C-2.68 4.69 -1.36 2.38 0 0 Z " fill="#6CD2C6" transform="translate(1057,1037)"/>
<path d="M0 0 C1.32 0.33 2.64 0.66 4 1 C4.33 2.65 4.66 4.3 5 6 C3.0625 5.25 3.0625 5.25 1 4 C0.25 1.875 0.25 1.875 0 0 Z " fill="#77E5CF" transform="translate(1099,928)"/>
<path d="M0 0 C1.32 0.33 2.64 0.66 4 1 C4.33 2.65 4.66 4.3 5 6 C2.525 5.01 2.525 5.01 0 4 C0 2.68 0 1.36 0 0 Z " fill="#74E7CE" transform="translate(1076,883)"/>
<path d="M0 0 C3.48331435 3.01887244 4.79157144 5.56909529 6 10 C2.64888166 7.76592111 1.18446044 6.73784176 0.1875 2.75 C0.125625 1.8425 0.06375 0.935 0 0 Z " fill="#73D5C4" transform="translate(1064,856)"/>
<path d="M0 0 C0.6875 1.625 0.6875 1.625 1 4 C-0.4375 7.25 -0.4375 7.25 -2 10 C-2.66 10 -3.32 10 -4 10 C-2.66666667 6.66666667 -1.33333333 3.33333333 0 0 Z " fill="#1E505D" transform="translate(607,852)"/>
<path d="M0 0 C0.99 0.33 1.98 0.66 3 1 C1.02 5.455 1.02 5.455 -1 10 C-1.66 9.67 -2.32 9.34 -3 9 C-3 8.34 -3 7.68 -3 7 C-2.34 7 -1.68 7 -1 7 C-0.67 4.69 -0.34 2.38 0 0 Z " fill="#74DCB9" transform="translate(650,763)"/>
<path d="M0 0 C2.64465038 3.1254959 3.84414715 6.08788267 5 10 C2 9 2 9 0.8125 7.25 C-0.10819096 4.70039426 -0.14948718 2.69076919 0 0 Z " fill="#70D4BD" transform="translate(1009,748)"/>
<path d="M0 0 C0.33 0 0.66 0 1 0 C1 1.98 1 3.96 1 6 C0.01 6.33 -0.98 6.66 -2 7 C-2 7.99 -2 8.98 -2 10 C-2.66 10 -3.32 10 -4 10 C-2.66666667 6.66666667 -1.33333333 3.33333333 0 0 Z " fill="#69CEAB" transform="translate(634,659)"/>
<path d="M0 0 C-1.65 1.65 -3.3 3.3 -5 5 C-5.66 4.67 -6.32 4.34 -7 4 C-7 3.01 -7 2.02 -7 1 C-4.53721199 -0.231394 -2.7204945 -0.07159196 0 0 Z " fill="#6FDEB2" transform="translate(768,548)"/>
<path d="M0 0 C0.99 0.33 1.98 0.66 3 1 C1.515 4.465 1.515 4.465 0 8 C-0.33 8 -0.66 8 -1 8 C-1.625 5.125 -1.625 5.125 -2 2 C-1.34 1.34 -0.68 0.68 0 0 Z " fill="#133D53" transform="translate(694,537)"/>
<path d="M0 0 C2.97 0.495 2.97 0.495 6 1 C6 1.99 6 2.98 6 4 C3.03 3.505 3.03 3.505 0 3 C0 2.01 0 1.02 0 0 Z " fill="#E6EAF3" transform="translate(1108,59)"/>
<path d="M0 0 C0.66 0 1.32 0 2 0 C2.33 1.32 2.66 2.64 3 4 C1.68 4.99 0.36 5.98 -1 7 C-1 6.34 -1 5.68 -1 5 C-1.66 4.67 -2.32 4.34 -3 4 C-2.505 3.525625 -2.01 3.05125 -1.5 2.5625 C0.11542197 1.24076302 0.11542197 1.24076302 0 0 Z " fill="#25345C" transform="translate(1363,1362)"/>
<path d="M0 0 C-8.57142857 0.28571429 -8.57142857 0.28571429 -12 -2 C-7.25042248 -3.52664992 -4.27829671 -2.29194467 0 0 Z " fill="#64C1B9" transform="translate(1000,1128)"/>
<path d="M0 0 C0.66 0.33 1.32 0.66 2 1 C2.40729228 3.32156597 2.74438677 5.6568787 3 8 C0.9375 6.25 0.9375 6.25 -1 4 C-0.75 1.75 -0.75 1.75 0 0 Z " fill="#D0D8E3" transform="translate(19,979)"/>
<path d="M0 0 C0.66 0.66 1.32 1.32 2 2 C1.625 4.625 1.625 4.625 1 7 C0.01 6.67 -0.98 6.34 -2 6 C-1.49396008 3.83125748 -1.00016187 2.00032373 0 0 Z " fill="#75E8D3" transform="translate(1125,978)"/>
<path d="M0 0 C0.33 0 0.66 0 1 0 C1.33 3.3 1.66 6.6 2 10 C0.68 9.34 -0.64 8.68 -2 8 C-1.34 5.36 -0.68 2.72 0 0 Z " fill="#71DEB6" transform="translate(476,968)"/>
<path d="M0 0 C0.33 0.99 0.66 1.98 1 3 C1.66 3 2.32 3 3 3 C3.33 4.65 3.66 6.3 4 8 C3.01 8.495 3.01 8.495 2 9 C0.4375 6.1875 0.4375 6.1875 -1 3 C-0.67 2.01 -0.34 1.02 0 0 Z " fill="#74E1CF" transform="translate(1049,962)"/>
<path d="M0 0 C0.66 0.66 1.32 1.32 2 2 C1.625 4.125 1.625 4.125 1 6 C-0.32 6.33 -1.64 6.66 -3 7 C-2.01 4.69 -1.02 2.38 0 0 Z " fill="#1C475D" transform="translate(584,897)"/>
<path d="M0 0 C0.99 0.33 1.98 0.66 3 1 C3.75 2.9375 3.75 2.9375 4 5 C3.67 5.66 3.34 6.32 3 7 C2.34 6.67 1.68 6.34 1 6 C1.33 5.34 1.66 4.68 2 4 C1.01 4 0.02 4 -1 4 C-0.67 2.68 -0.34 1.36 0 0 Z " fill="#6FE0B3" transform="translate(537,848)"/>
<path d="M0 0 C0.33 0 0.66 0 1 0 C0.38461538 6.52307692 0.38461538 6.52307692 -1.5625 8.9375 C-2.036875 9.288125 -2.51125 9.63875 -3 10 C-3.33 9.01 -3.66 8.02 -4 7 C-3.525625 6.5875 -3.05125 6.175 -2.5625 5.75 C-0.83733482 3.817815 -0.43415125 2.51807725 0 0 Z " fill="#78DEB9" transform="translate(609,844)"/>
<path d="M0 0 C2.08954032 4.17908064 2.16552619 4.80410573 1 9 C0.01 9 -0.98 9 -2 9 C-1.34 6.03 -0.68 3.06 0 0 Z " fill="#2F3C5D" transform="translate(36,560)"/>
<path d="M0 0 C1.42944945 2.35438733 2.08661261 3.48032433 1.625 6.25 C1.41875 6.8275 1.2125 7.405 1 8 C0.01 7.67 -0.98 7.34 -2 7 C-1.34 4.69 -0.68 2.38 0 0 Z " fill="#1C385C" transform="translate(765,550)"/>
<path d="M0 0 C0.66 0 1.32 0 2 0 C2.33 0.99 2.66 1.98 3 3 C1.0625 5.6875 1.0625 5.6875 -1 8 C-1.04241723 5.66705225 -1.04092937 3.33297433 -1 1 C-0.67 0.67 -0.34 0.34 0 0 Z " fill="#153A54" transform="translate(700,525)"/>
<path d="M0 0 C-1.32 0.33 -2.64 0.66 -4 1 C-4 1.66 -4 2.32 -4 3 C-5.65 3 -7.3 3 -9 3 C-9 2.34 -9 1.68 -9 1 C-2.25 -1.125 -2.25 -1.125 0 0 Z " fill="#70DAB2" transform="translate(772,476)"/>
<path d="M0 0 C0.66 0 1.32 0 2 0 C3.32 2.97 4.64 5.94 6 9 C5.34 9 4.68 9 4 9 C3.67 7.68 3.34 6.36 3 5 C2.34 5 1.68 5 1 5 C0.67 3.35 0.34 1.7 0 0 Z " fill="#343F60" transform="translate(1505,424)"/>
<path d="M0 0 C0.33 1.32 0.66 2.64 1 4 C0.34 4 -0.32 4 -1 4 C-1.66 5.98 -2.32 7.96 -3 10 C-3.66 10 -4.32 10 -5 10 C-3.66511872 6.40608886 -2.03977277 3.24509304 0 0 Z " fill="#414C68" transform="translate(114,387)"/>
<path d="M0 0 C0.66 0.66 1.32 1.32 2 2 C-0.625 6.875 -0.625 6.875 -4 8 C-2.87548273 5.0280615 -1.77706209 2.66559313 0 0 Z " fill="#343F62" transform="translate(124,371)"/>
<path d="M0 0 C0.33 1.32 0.66 2.64 1 4 C0.01 5.485 0.01 5.485 -1 7 C-1.66 7 -2.32 7 -3 7 C-3 7.66 -3 8.32 -3 9 C-3.66 8.67 -4.32 8.34 -5 8 C-3.35 5.36 -1.7 2.72 0 0 Z " fill="#394365" transform="translate(133,357)"/>
<path d="M0 0 C0.33 0.66 0.66 1.32 1 2 C0.00390625 3.9453125 0.00390625 3.9453125 -1.4375 6.125 C-1.91058594 6.84945313 -2.38367188 7.57390625 -2.87109375 8.3203125 C-3.24363281 8.87460937 -3.61617187 9.42890625 -4 10 C-4.66 9.67 -5.32 9.34 -6 9 C-4.16172132 5.84866512 -2.24027294 2.88035092 0 0 Z " fill="#303D5D" transform="translate(218,250)"/>
<path d="M0 0 C0.99 0.33 1.98 0.66 3 1 C3.33 1.99 3.66 2.98 4 4 C3.34 4.66 2.68 5.32 2 6 C0.68 4.35 -0.64 2.7 -2 1 C-1.34 0.67 -0.68 0.34 0 0 Z " fill="#E9F0F2" transform="translate(1362,227)"/>
<path d="M0 0 C0.66 1.32 1.32 2.64 2 4 C0.35 5.32 -1.3 6.64 -3 8 C-2.45276317 4.62537285 -1.9451 2.91765 0 0 Z " fill="#E9F0F1" transform="translate(235,228)"/>
<path d="M0 0 C0.66 0.33 1.32 0.66 2 1 C0.02 3.97 0.02 3.97 -2 7 C-2.99 6.01 -3.98 5.02 -5 4 C-3.35 2.68 -1.7 1.36 0 0 Z " fill="#2C395E" transform="translate(311,166)"/>
<path d="M0 0 C0 0.66 0 1.32 0 2 C-2.31 2 -4.62 2 -7 2 C-7 1.34 -7 0.68 -7 0 C-4.3333581 -1.33332095 -2.83319697 -0.67102033 0 0 Z " fill="#DDE2ED" transform="translate(871,1)"/>
<path d="M0 0 C1.98 1.65 3.96 3.3 6 5 C4.125 5.625 4.125 5.625 2 6 C1.34 5.34 0.68 4.68 0 4 C0 2.68 0 1.36 0 0 Z " fill="#E2E7F1" transform="translate(280,1408)"/>
<path d="M0 0 C2.64 1.98 5.28 3.96 8 6 C7.01 6.495 7.01 6.495 6 7 C3.4375 5.8125 3.4375 5.8125 1 4 C0.67 2.68 0.34 1.36 0 0 Z " fill="#E3E9F4" transform="translate(267,1397)"/>
<path d="M0 0 C0.33 0.99 0.66 1.98 1 3 C-1.97 5.475 -1.97 5.475 -5 8 C-4.6875 6.0625 -4.6875 6.0625 -4 4 C-3.01 3.67 -2.02 3.34 -1 3 C-0.67 2.01 -0.34 1.02 0 0 Z " fill="#444F6E" transform="translate(1354,1374)"/>
<path d="M0 0 C0.99 0 1.98 0 3 0 C1.63016497 3.16115776 1.0109362 3.9927092 -2 6 C-1.125 1.125 -1.125 1.125 0 0 Z " fill="#303C5C" transform="translate(1357,1370)"/>
<path d="M0 0 C0.99 0 1.98 0 3 0 C3 0.99 3 1.98 3 3 C0.625 4.75 0.625 4.75 -2 6 C-2.66 5.67 -3.32 5.34 -4 5 C-2.1875 2.5 -2.1875 2.5 0 0 Z " fill="#DAE1EC" transform="translate(1427,1296)"/>
<path d="M0 0 C2.4375 0.8125 2.4375 0.8125 5 2 C5.33 2.99 5.66 3.98 6 5 C5.34 5.66 4.68 6.32 4 7 C2.02 3.535 2.02 3.535 0 0 Z " fill="#2E3A5E" transform="translate(128,1234)"/>
<path d="M0 0 C1.2077558 3.62326739 0.54311128 4.64146369 -1 8 C-1.66 7.67 -2.32 7.34 -3 7 C-3 5.35 -3 3.7 -3 2 C-2.01 2 -1.02 2 0 2 C0 1.34 0 0.68 0 0 Z " fill="#243157" transform="translate(1525,1134)"/>
<path d="M0 0 C1.32 0.33 2.64 0.66 4 1 C4 1.66 4 2.32 4 3 C5.45833358 4.62514468 5.45833358 4.62514468 7 6 C6.01 6 5.02 6 4 6 C0 1.54285714 0 1.54285714 0 0 Z " fill="#153D52" transform="translate(545,1043)"/>
<path d="M0 0 C0.33 0.66 0.66 1.32 1 2 C1.66 2 2.32 2 3 2 C2.34 3.32 1.68 4.64 1 6 C0.01 6 -0.98 6 -2 6 C-1.34 4.02 -0.68 2.04 0 0 Z " fill="#1B425C" transform="translate(547,969)"/>
<path d="M0 0 C2 1 2 1 2.8125 2.875 C3 5 3 5 1.5625 6.75 C1.046875 7.1625 0.53125 7.575 0 8 C-0.98120464 4.94736336 -0.98120464 3.05263664 0 0 Z " fill="#6DE4B6" transform="translate(555,945)"/>
<path d="M0 0 C0.66 0.33 1.32 0.66 2 1 C2.625 3.5625 2.625 3.5625 3 6 C2.01 5.67 1.02 5.34 0 5 C-0.75 3 -0.75 3 -1 1 C-0.67 0.67 -0.34 0.34 0 0 Z " fill="#73E4CB" transform="translate(1028,921)"/>
<path d="M0 0 C0.66 0.33 1.32 0.66 2 1 C1.1875 3.4375 1.1875 3.4375 0 6 C-0.99 6.33 -1.98 6.66 -3 7 C-1.125 1.125 -1.125 1.125 0 0 Z " fill="#6ED2B1" transform="translate(524,874)"/>
<path d="M0 0 C1 3 1 3 -0.4375 6.1875 C-1.2109375 7.5796875 -1.2109375 7.5796875 -2 9 C-2.33 9 -2.66 9 -3 9 C-2.25 2.25 -2.25 2.25 0 0 Z " fill="#113F50" transform="translate(535,849)"/>
<path d="M0 0 C0.66 1.32 1.32 2.64 2 4 C0.02 4.99 0.02 4.99 -2 6 C-2 6.99 -2 7.98 -2 9 C-2.66 8.67 -3.32 8.34 -4 8 C-2.68 5.36 -1.36 2.72 0 0 Z " fill="#6FD1AE" transform="translate(586,753)"/>
<path d="M0 0 C0.66 0 1.32 0 2 0 C0.81323934 4.10801767 0.10551666 5.89448334 -3 9 C-2.01 6.03 -1.02 3.06 0 0 Z " fill="#76DCBA" transform="translate(741,588)"/>
<path d="M0 0 C2.97 0 5.94 0 9 0 C5.81237635 2.12508244 3.73487777 2.5020163 0 3 C0 2.01 0 1.02 0 0 Z " fill="#194A59" transform="translate(768,473)"/>
<path d="M0 0 C0.33 0 0.66 0 1 0 C0.67 2.31 0.34 4.62 0 7 C-0.66 7 -1.32 7 -2 7 C-2 7.66 -2 8.32 -2 9 C-2.66 8.67 -3.32 8.34 -4 8 C-2.68 5.36 -1.36 2.72 0 0 Z " fill="#2F3A5C" transform="translate(91,428)"/>
<path d="M0 0 C0.66 1.32 1.32 2.64 2 4 C-1 6 -1 6 -4 6 C-3.67 5.01 -3.34 4.02 -3 3 C-2.34 3 -1.68 3 -1 3 C-0.67 2.01 -0.34 1.02 0 0 Z " fill="#354163" transform="translate(224,244)"/>
<path d="M0 0 C1.98 1.65 3.96 3.3 6 5 C5.34 5.66 4.68 6.32 4 7 C2 5.1875 2 5.1875 0 3 C0 2.01 0 1.02 0 0 Z " fill="#323E5C" transform="translate(1369,238)"/>
<path d="M0 0 C-1.39332574 3.36720387 -2.9789286 4.9859524 -6 7 C-5.37162381 3.35541809 -4.14650034 0 0 0 Z " fill="#E1E8F2" transform="translate(270,199)"/>
<path d="M0 0 C-1.04874998 2.62187494 -1.64931313 3.79371361 -4.125 5.25 C-4.74375 5.4975 -5.3625 5.745 -6 6 C-3.84615385 0 -3.84615385 0 0 0 Z " fill="#E0E5F0" transform="translate(277,193)"/>
<path d="M0 0 C0.33 0.66 0.66 1.32 1 2 C3.52733235 2.65555119 3.52733235 2.65555119 6 3 C6 3.99 6 4.98 6 6 C2.62496331 4.8141763 0.35277269 3.72426311 -2 1 C-1.34 0.67 -0.68 0.34 0 0 Z " fill="#DAE1ED" transform="translate(1253,138)"/>
<path d="M0 0 C2.31 0 4.62 0 7 0 C7 0.66 7 1.32 7 2 C4.69 2.66 2.38 3.32 0 4 C0 2.68 0 1.36 0 0 Z " fill="#E0E6ED" transform="translate(527,44)"/>
</svg>
