<?xml version="1.0" encoding="UTF-8"?>
<!DOCTYPE svg PUBLIC "-//W3C//DTD SVG 1.1//EN" "http://www.w3.org/Graphics/SVG/1.1/DTD/svg11.dtd">
<svg xmlns="http://www.w3.org/2000/svg" version="1.1" width="306px" height="165px" style="shape-rendering:geometricPrecision; text-rendering:geometricPrecision; image-rendering:optimizeQuality; fill-rule:evenodd; clip-rule:evenodd" xmlns:xlink="http://www.w3.org/1999/xlink">
<g><path style="opacity:1" fill="#fefefe" d="M -0.5,-0.5 C 62.8333,-0.5 126.167,-0.5 189.5,-0.5C 125.202,14.0057 96.0354,54.339 102,120.5C 102.978,131.433 105.978,141.767 111,151.5C 115.126,155.482 119.959,158.315 125.5,160C 134.548,162.114 143.548,163.614 152.5,164.5C 101.5,164.5 50.5,164.5 -0.5,164.5C -0.5,147.5 -0.5,130.5 -0.5,113.5C 10.2448,152.06 35.5781,168.227 75.5,162C 79.9901,160.726 84.3234,159.059 88.5,157C 90.3824,154.022 91.8824,150.855 93,147.5C 98.3834,127.288 95.7167,108.288 85,90.5C 67.3013,69.5962 45.4679,63.0962 19.5,71C 9.05492,77.0885 2.38825,85.9219 -0.5,97.5C -0.5,64.8333 -0.5,32.1667 -0.5,-0.5 Z"/></g>
<g><path style="opacity:1" fill="#f69838" d="M 189.5,-0.5 C 195.167,-0.5 200.833,-0.5 206.5,-0.5C 243.769,5.10565 263.769,26.7723 266.5,64.5C 266.521,78.3975 263.854,91.7308 258.5,104.5C 257.448,104.351 256.448,104.517 255.5,105C 253.302,110.031 249.636,113.531 244.5,115.5C 244.167,115.167 243.833,114.833 243.5,114.5C 244.813,111.595 245.313,108.595 245,105.5C 238.127,103.679 234.627,106.512 234.5,114C 234.167,116.667 235.167,118.667 237.5,120C 233.646,125.355 228.979,129.855 223.5,133.5C 221.127,132.45 220.127,130.617 220.5,128C 222.268,120.094 224.268,112.261 226.5,104.5C 223.047,105.143 219.881,106.476 217,108.5C 211.17,103.392 205.004,103.225 198.5,108C 191.994,112.514 188.16,118.681 187,126.5C 183.4,130.448 179.067,133.115 174,134.5C 169.614,133.782 166.781,131.282 165.5,127C 171.072,124.302 176.405,121.135 181.5,117.5C 183.466,114.451 183.966,111.118 183,107.5C 178.553,104.091 173.719,103.591 168.5,106C 160.875,110.745 156.375,117.578 155,126.5C 143.514,138.961 137.848,136.961 138,120.5C 147.897,111.539 153.397,100.372 154.5,87C 154.377,80.6034 151.377,78.9368 145.5,82C 143.779,82.7393 142.113,83.5726 140.5,84.5C 133.242,97.7747 128.908,111.941 127.5,127C 126.812,137.317 131.479,141.651 141.5,140C 146.633,137.933 151.3,135.1 155.5,131.5C 158.964,139.396 164.964,142.23 173.5,140C 178.483,138.174 182.817,135.341 186.5,131.5C 189.368,140.754 195.034,142.92 203.5,138C 206.192,135.443 208.525,132.609 210.5,129.5C 211.172,132.897 212.005,136.23 213,139.5C 215.401,140.602 217.901,140.769 220.5,140C 228.339,134.66 235.006,128.16 240.5,120.5C 242.632,119.402 244.798,118.402 247,117.5C 244.71,122.191 242.876,127.191 241.5,132.5C 230.745,145.056 217.411,153.89 201.5,159C 191.852,161.716 182.185,163.549 172.5,164.5C 165.833,164.5 159.167,164.5 152.5,164.5C 143.548,163.614 134.548,162.114 125.5,160C 119.959,158.315 115.126,155.482 111,151.5C 105.978,141.767 102.978,131.433 102,120.5C 96.0354,54.339 125.202,14.0057 189.5,-0.5 Z"/></g>
<g><path style="opacity:1" fill="#fefdfd" d="M 206.5,-0.5 C 239.5,-0.5 272.5,-0.5 305.5,-0.5C 305.5,41.8333 305.5,84.1667 305.5,126.5C 303.037,128.461 300.703,130.628 298.5,133C 297.241,133.982 295.908,134.315 294.5,134C 293.409,131.936 293.242,129.769 294,127.5C 296.436,121.859 298.269,116.025 299.5,110C 299.521,106.501 297.854,104.668 294.5,104.5C 291.972,104.763 289.639,105.596 287.5,107C 283.333,109.833 279.833,113.333 277,117.5C 276.93,113.036 278.097,108.869 280.5,105C 276.937,104.938 273.437,105.438 270,106.5C 267.397,112.643 265.397,118.977 264,125.5C 261.833,127.667 259.667,129.833 257.5,132C 252.33,132.865 250.497,130.699 252,125.5C 254.108,118.508 256.608,111.674 259.5,105C 259.272,104.601 258.938,104.435 258.5,104.5C 263.854,91.7308 266.521,78.3975 266.5,64.5C 263.769,26.7723 243.769,5.10565 206.5,-0.5 Z"/></g>
<g><path style="opacity:1" fill="#3599cd" d="M -0.5,113.5 C -0.5,108.167 -0.5,102.833 -0.5,97.5C 2.38825,85.9219 9.05492,77.0885 19.5,71C 45.4679,63.0962 67.3013,69.5962 85,90.5C 95.7167,108.288 98.3834,127.288 93,147.5C 91.8824,150.855 90.3824,154.022 88.5,157C 84.3234,159.059 79.9901,160.726 75.5,162C 35.5781,168.227 10.2448,152.06 -0.5,113.5 Z"/></g>
<g><path style="opacity:1" fill="#fef5ef" d="M 215.5,71.5 C 217.465,71.9483 217.798,72.9483 216.5,74.5C 215.614,73.675 215.281,72.675 215.5,71.5 Z"/></g>
<g><path style="opacity:1" fill="#fbc397" d="M 202.5,71.5 C 201.88,77.9262 202.547,83.9262 204.5,89.5C 203.791,90.404 202.791,90.7373 201.5,90.5C 201.177,83.9779 201.51,77.6446 202.5,71.5 Z"/></g>
<g><path style="opacity:1" fill="#fcdabf" d="M 196.5,71.5 C 197.5,71.5 198.5,71.5 199.5,71.5C 199.5,72.5 199.5,73.5 199.5,74.5C 198.5,74.5 197.5,74.5 196.5,74.5C 196.5,73.5 196.5,72.5 196.5,71.5 Z"/></g>
<g><path style="opacity:1" fill="#fff8f3" d="M 221.5,72.5 C 223.035,73.8439 224.368,75.5106 225.5,77.5C 223.688,80.8989 223.021,84.5656 223.5,88.5C 224.675,88.281 225.675,88.6143 226.5,89.5C 224.994,90.7472 223.494,90.7472 222,89.5C 222.003,85.2581 221.17,81.2581 219.5,77.5C 221.005,76.1585 221.672,74.4918 221.5,72.5 Z"/></g>
<g><path style="opacity:1" fill="#fff0e5" d="M 171.5,76.5 C 174.119,76.2317 176.619,76.565 179,77.5C 179.749,78.635 179.583,79.635 178.5,80.5C 176.827,78.9137 174.827,78.2471 172.5,78.5C 172.351,79.552 172.517,80.552 173,81.5C 175.175,82.2546 177.341,83.088 179.5,84C 180.935,86.2672 180.602,88.2672 178.5,90C 175.331,90.9782 172.497,90.4782 170,88.5C 169.251,87.365 169.417,86.365 170.5,85.5C 171.631,86.7515 172.964,87.7515 174.5,88.5C 176,88.5472 177,87.8805 177.5,86.5C 175.207,84.9485 172.707,83.6151 170,82.5C 169.252,80.1599 169.752,78.1599 171.5,76.5 Z"/></g>
<g><path style="opacity:1" fill="#fefdfc" d="M 217.5,76.5 C 218.097,81.294 217.43,85.6273 215.5,89.5C 214.903,84.706 215.57,80.3727 217.5,76.5 Z"/></g>
<g><path style="opacity:1" fill="#fab57d" d="M 217.5,76.5 C 218.486,80.97 218.819,85.6367 218.5,90.5C 217.209,90.7373 216.209,90.404 215.5,89.5C 217.43,85.6273 218.097,81.294 217.5,76.5 Z"/></g>
<g><path style="opacity:1" fill="#fde2cf" d="M 196.5,76.5 C 197.5,76.5 198.5,76.5 199.5,76.5C 199.5,81.1667 199.5,85.8333 199.5,90.5C 198.5,90.5 197.5,90.5 196.5,90.5C 196.5,85.8333 196.5,81.1667 196.5,76.5 Z"/></g>
<g><path style="opacity:1" fill="#fff4ec" d="M 185.5,76.5 C 188.365,76.0548 190.865,76.7215 193,78.5C 193.193,82.2597 192.359,82.4264 190.5,79C 188.888,78.2797 187.388,78.4464 186,79.5C 185.333,82.1667 185.333,84.8333 186,87.5C 188.825,89.0843 190.992,88.4176 192.5,85.5C 193.754,87.2592 193.421,88.7592 191.5,90C 184.24,91.0332 181.407,87.8666 183,80.5C 183.662,79.0161 184.496,77.6828 185.5,76.5 Z"/></g>
<g><path style="opacity:1" fill="#070503" d="M 258.5,104.5 C 258.938,104.435 259.272,104.601 259.5,105C 256.608,111.674 254.108,118.508 252,125.5C 250.497,130.699 252.33,132.865 257.5,132C 259.667,129.833 261.833,127.667 264,125.5C 265.397,118.977 267.397,112.643 270,106.5C 273.437,105.438 276.937,104.938 280.5,105C 278.097,108.869 276.93,113.036 277,117.5C 279.833,113.333 283.333,109.833 287.5,107C 289.639,105.596 291.972,104.763 294.5,104.5C 297.854,104.668 299.521,106.501 299.5,110C 298.269,116.025 296.436,121.859 294,127.5C 293.242,129.769 293.409,131.936 294.5,134C 295.908,134.315 297.241,133.982 298.5,133C 300.703,130.628 303.037,128.461 305.5,126.5C 305.5,128.167 305.5,129.833 305.5,131.5C 301.657,134.503 297.657,137.336 293.5,140C 287.361,142.149 283.694,140.149 282.5,134C 284.001,126.667 286.001,119.5 288.5,112.5C 286.692,112.491 285.025,112.991 283.5,114C 280.315,116.884 277.482,120.051 275,123.5C 273.839,128.416 273.173,133.416 273,138.5C 270.564,139.355 268.064,140.021 265.5,140.5C 264.833,138.833 264.167,137.167 263.5,135.5C 263.657,134.127 263.49,132.793 263,131.5C 258.977,136.202 253.977,139.202 248,140.5C 243.317,140.057 241.15,137.39 241.5,132.5C 242.876,127.191 244.71,122.191 247,117.5C 244.798,118.402 242.632,119.402 240.5,120.5C 235.006,128.16 228.339,134.66 220.5,140C 217.901,140.769 215.401,140.602 213,139.5C 212.005,136.23 211.172,132.897 210.5,129.5C 208.525,132.609 206.192,135.443 203.5,138C 195.034,142.92 189.368,140.754 186.5,131.5C 182.817,135.341 178.483,138.174 173.5,140C 164.964,142.23 158.964,139.396 155.5,131.5C 151.3,135.1 146.633,137.933 141.5,140C 131.479,141.651 126.812,137.317 127.5,127C 128.908,111.941 133.242,97.7747 140.5,84.5C 142.113,83.5726 143.779,82.7393 145.5,82C 151.377,78.9368 154.377,80.6034 154.5,87C 153.397,100.372 147.897,111.539 138,120.5C 137.848,136.961 143.514,138.961 155,126.5C 156.375,117.578 160.875,110.745 168.5,106C 173.719,103.591 178.553,104.091 183,107.5C 183.966,111.118 183.466,114.451 181.5,117.5C 176.405,121.135 171.072,124.302 165.5,127C 166.781,131.282 169.614,133.782 174,134.5C 179.067,133.115 183.4,130.448 187,126.5C 188.16,118.681 191.994,112.514 198.5,108C 205.004,103.225 211.17,103.392 217,108.5C 219.881,106.476 223.047,105.143 226.5,104.5C 224.268,112.261 222.268,120.094 220.5,128C 220.127,130.617 221.127,132.45 223.5,133.5C 228.979,129.855 233.646,125.355 237.5,120C 235.167,118.667 234.167,116.667 234.5,114C 234.627,106.512 238.127,103.679 245,105.5C 245.313,108.595 244.813,111.595 243.5,114.5C 243.833,114.833 244.167,115.167 244.5,115.5C 249.636,113.531 253.302,110.031 255.5,105C 256.448,104.517 257.448,104.351 258.5,104.5 Z"/></g>
<g><path style="opacity:1" fill="#fff3ea" d="M 202.5,71.5 C 204.25,74.3554 205.083,77.6887 205,81.5C 206.858,78.5878 209.358,77.0878 212.5,77C 210.981,78.3513 209.648,79.8513 208.5,81.5C 215.081,92.1122 214.248,92.7789 206,83.5C 204.681,85.2495 204.181,87.2495 204.5,89.5C 202.547,83.9262 201.88,77.9262 202.5,71.5 Z"/></g>
<g><path style="opacity:1" fill="#ec9236" d="M 148.5,84.5 C 150.95,84.8743 151.95,86.3743 151.5,89C 150.218,98.396 146.385,106.563 140,113.5C 141.096,103.373 143.929,93.7062 148.5,84.5 Z"/></g>
<g><path style="opacity:1" fill="#ee9336" d="M 170.5,107.5 C 175.494,107.329 177.328,109.662 176,114.5C 173.758,118.919 170.258,121.586 165.5,122.5C 164.627,116.595 166.293,111.595 170.5,107.5 Z"/></g>
<g><path style="opacity:1" fill="#f09437" d="M 206.5,107.5 C 212.997,107.18 215.164,110.18 213,116.5C 211.913,120.766 210.246,124.766 208,128.5C 206.462,131.015 204.295,132.682 201.5,133.5C 199.575,133.41 198.408,132.41 198,130.5C 197.181,121.453 200.015,113.787 206.5,107.5 Z"/></g>
<g><path style="opacity:1" fill="#fdfcfc" d="M 305.5,131.5 C 305.5,142.5 305.5,153.5 305.5,164.5C 261.167,164.5 216.833,164.5 172.5,164.5C 182.185,163.549 191.852,161.716 201.5,159C 217.411,153.89 230.745,145.056 241.5,132.5C 241.15,137.39 243.317,140.057 248,140.5C 253.977,139.202 258.977,136.202 263,131.5C 263.49,132.793 263.657,134.127 263.5,135.5C 263.201,137.604 263.534,139.604 264.5,141.5C 265.107,141.376 265.44,141.043 265.5,140.5C 268.064,140.021 270.564,139.355 273,138.5C 273.173,133.416 273.839,128.416 275,123.5C 277.482,120.051 280.315,116.884 283.5,114C 285.025,112.991 286.692,112.491 288.5,112.5C 286.001,119.5 284.001,126.667 282.5,134C 283.694,140.149 287.361,142.149 293.5,140C 297.657,137.336 301.657,134.503 305.5,131.5 Z"/></g>
<g><path style="opacity:1" fill="#818181" d="M 263.5,135.5 C 264.167,137.167 264.833,138.833 265.5,140.5C 265.44,141.043 265.107,141.376 264.5,141.5C 263.534,139.604 263.201,137.604 263.5,135.5 Z"/></g>
</svg>
